<svg xmlns="http://www.w3.org/2000/svg" viewBox="0 0 841.89 595.28"><defs><style>.cls-1{fill:#231f20;}.cls-2{fill:#0674b2;}.cls-10,.cls-3{fill:#fff;}.cls-4{fill:#58c9f4;}.cls-11,.cls-12,.cls-13,.cls-5,.cls-6,.cls-7,.cls-8{fill:none;}.cls-11,.cls-13,.cls-5,.cls-6,.cls-7,.cls-8{stroke:#000;}.cls-10,.cls-12,.cls-5{stroke-miterlimit:10;}.cls-5,.cls-6{stroke-width:0.5px;}.cls-11,.cls-13,.cls-6,.cls-7,.cls-8{stroke-linecap:round;stroke-linejoin:round;}.cls-7{stroke-width:0.64px;}.cls-8{stroke-width:0.72px;}.cls-9{fill-rule:evenodd;}.cls-10,.cls-12{stroke:#231f20;}.cls-11{stroke-width:0.42px;}.cls-12{stroke-width:0.4px;}.cls-13{stroke-width:0.55px;}</style></defs><g id="Frame"><path class="cls-1" d="M15.78,61.51l-.54,1.71H14.4l2.19-6.7h1.07l2.18,6.7H19l-.54-1.71Zm2.43-.7-1.1-3.57L16,60.81Z"/><path class="cls-1" d="M17,157.74H15.14V151H16.8c1.18,0,2.37.38,2.37,1.69a1.46,1.46,0,0,1-1.25,1.46,1.6,1.6,0,0,1,1.54,1.65C19.46,157.29,18.18,157.74,17,157.74Zm0-6H16v2.16h1.08c.79,0,1.24-.33,1.24-1.11S17.8,151.72,17,151.72Zm.14,2.86H16V157H17.1c.65,0,1.47-.19,1.47-1.18S17.92,154.58,17.13,154.58Z"/><path class="cls-1" d="M19.64,246.09l-.48.55a2.08,2.08,0,0,0-1.41-.49c-1.09,0-2,.7-2,2.74s.88,2.75,2,2.75a2.36,2.36,0,0,0,1.56-.56l.44.55a2.77,2.77,0,0,1-2,.73c-1.63,0-2.91-1.21-2.91-3.47s1.33-3.45,2.87-3.45A2.87,2.87,0,0,1,19.64,246.09Z"/><path class="cls-1" d="M16.55,346.76H15v-6.7h1.43c1.57,0,3.14.53,3.14,3.32S18,346.76,16.55,346.76Zm.1-6h-.79v5.33h.8c1,0,2-.49,2-2.7S17.58,340.75,16.65,340.75Z"/><path class="cls-1" d="M16.27,437.53h2.49v.69H16.27v2.37h3.06v.69h-3.9v-6.71h3.81l-.1.7H16.27Z"/><path class="cls-1" d="M16.4,532.13H19v.68H16.4v3h-.85v-6.71H19.5l-.09.7h-3Z"/><path class="cls-1" d="M375.32,584.66h-.86v1.62h-.79v-1.62h-2.79v-.61l2-4.58.68.29L371.75,584h1.93l.07-1.9h.71V584h.86Z"/><path class="cls-1" d="M675.94,586.15l2.61-5.89H675.4v-.68h4v.63l-2.68,6.16Z"/><path class="cls-1" d="M273.43,581.15a1.6,1.6,0,0,1-1.3,1.56,1.58,1.58,0,0,1,1.51,1.65,2.11,2.11,0,0,1-2.32,2,2.65,2.65,0,0,1-2.06-.89l.55-.44a2,2,0,0,0,1.49.66,1.32,1.32,0,0,0,1.49-1.36c0-1-.6-1.28-1.39-1.28h-.56l.1-.65h.4a1.15,1.15,0,0,0,1.26-1.17,1.13,1.13,0,0,0-1.26-1.13,2,2,0,0,0-1.42.61l-.45-.49a2.66,2.66,0,0,1,1.91-.78A1.83,1.83,0,0,1,273.43,581.15Z"/><path class="cls-1" d="M578.15,584a2.15,2.15,0,0,1-2.12,2.36c-1.62,0-2.23-1.27-2.23-3.27,0-2.23.93-3.65,2.5-3.65a2.35,2.35,0,0,1,1.33.4l-.32.54a2,2,0,0,0-1-.28c-1,0-1.63,1-1.66,2.69a1.83,1.83,0,0,1,1.62-.9A1.87,1.87,0,0,1,578.15,584Zm-.84,0c0-1.1-.49-1.47-1.19-1.47a1.72,1.72,0,0,0-1.48,1c0,1.51.44,2.19,1.39,2.19S577.31,585.09,577.31,584.05Z"/><path class="cls-1" d="M172,581.34c0,1.23-.79,2.23-3,4.24h3.15l-.1.7h-4v-.66c2.53-2.42,3.08-3.16,3.08-4.25a1.12,1.12,0,0,0-1.21-1.21,1.68,1.68,0,0,0-1.44.71l-.56-.44a2.42,2.42,0,0,1,2-1A1.85,1.85,0,0,1,172,581.34Z"/><path class="cls-1" d="M476.23,580.24h-2.65v2.11a2.24,2.24,0,0,1,1.15-.29c1.1,0,1.84.76,1.84,2.1a2.11,2.11,0,0,1-2.27,2.23,2.67,2.67,0,0,1-1.94-.8l.5-.49a2,2,0,0,0,1.44.62c.89,0,1.42-.55,1.42-1.59s-.54-1.43-1.22-1.43a2.79,2.79,0,0,0-1,.23h-.66v-3.35h3.55Z"/><path class="cls-1" d="M70.94,585.62v.66H67.07v-.66h1.65v-5.15l-1.53.93-.36-.58,2-1.24h.72v6Z"/><path class="cls-1" d="M779.65,582.69a2,2,0,0,1,1.44,1.79c0,1.1-.89,1.91-2.3,1.91s-2.27-.83-2.27-1.89a1.94,1.94,0,0,1,1.35-1.75,1.56,1.56,0,0,1-1.07-1.53,1.85,1.85,0,0,1,2-1.75,1.78,1.78,0,0,1,2,1.7C780.81,581.83,780.39,582.28,779.65,582.69Zm-1.22.29a1.61,1.61,0,0,0-1,1.52c0,.76.48,1.23,1.41,1.23s1.44-.53,1.44-1.23C780.23,583.6,779.49,583.35,778.43,583Zm.65-.49c.62-.36.93-.67.93-1.28a1.21,1.21,0,0,0-2.41,0C777.6,582,778.16,582.19,779.08,582.49Z"/><path class="cls-2" d="M574.41,476.17a14.35,14.35,0,0,0-9.69,3.75,14.4,14.4,0,1,0,0,21.3,14.4,14.4,0,1,0,9.69-25.05Z"/><path class="cls-3" d="M543.58,492.28v-4.72a2.18,2.18,0,0,1,2.24-2.35,2.26,2.26,0,0,1,2.19,2.5.15.15,0,0,1-.17.17H547c-.1,0-.16-.05-.16-.17,0-.91-.44-1.39-1-1.39s-1,.44-1,1.17v4.86c0,.73.38,1.17,1,1.17s1.07-.53,1.1-1.49a.16.16,0,0,1,.17-.17h.84a.17.17,0,0,1,.17.19c-.06,1.58-.93,2.58-2.26,2.58A2.18,2.18,0,0,1,543.58,492.28Z"/><path class="cls-3" d="M553.24,488.13v7a2,2,0,0,1-2.06,2.12,2,2,0,0,1-2-2.1c0-.12,0-.18.17-.18h.77c.11,0,.16.05.17.18,0,.65.38,1,.94,1a.9.9,0,0,0,.94-1v-1.31a1.37,1.37,0,0,1-1,.47,2,2,0,0,1-2-2.12v-4.06a.16.16,0,0,1,.18-.17h.76a.16.16,0,0,1,.18.17v4.1a.94.94,0,1,0,1.88,0v-4.1a.17.17,0,0,1,.18-.17h.76A.17.17,0,0,1,553.24,488.13Z"/><path class="cls-3" d="M554.47,492.52a1.93,1.93,0,0,1,2.06-1.92h1v-.72a.9.9,0,0,0-.94-1,.85.85,0,0,0-.88.9c0,.12-.07.16-.19.16h-.75a.17.17,0,0,1-.17-.19,2,2,0,0,1,2-1.94,2,2,0,0,1,2,2.11v2.63a1.93,1.93,0,0,1-2,2.06A2,2,0,0,1,554.47,492.52Zm3,0v-1h-.94a.91.91,0,0,0-1,.92.94.94,0,0,0,1,1A.89.89,0,0,0,557.51,492.56Z"/><path class="cls-3" d="M559.88,494.31V490a2,2,0,1,1,4.07,0v4.36a.17.17,0,0,1-.18.18H563a.16.16,0,0,1-.18-.18v-4.4a.92.92,0,1,0-1.83,0v4.4a.17.17,0,0,1-.18.18h-.76A.16.16,0,0,1,559.88,494.31Z"/><path class="cls-4" d="M569.76,485.53l-1.56,8.53a.52.52,0,0,1-.56.48h-.72a.53.53,0,0,1-.56-.48l-1.55-8.53a.15.15,0,0,1,.16-.18h.85a.17.17,0,0,1,.19.16l1.28,7.65,1.28-7.65a.16.16,0,0,1,.18-.16h.85A.14.14,0,0,1,569.76,485.53Z"/><path class="cls-4" d="M570.62,486.47a.65.65,0,0,1,.66-.68.67.67,0,0,1,.68.68.68.68,0,0,1-.68.67A.64.64,0,0,1,570.62,486.47Zm.1,7.84v-6.18a.17.17,0,0,1,.19-.17h.75a.17.17,0,0,1,.19.17v6.18a.17.17,0,0,1-.19.18h-.75A.17.17,0,0,1,570.72,494.31Z"/><path class="cls-4" d="M573.05,492.49v-2.56a2.08,2.08,0,0,1,4.16,0,1.93,1.93,0,0,1-2.07,2h-1v.68a.94.94,0,1,0,1.88.06.16.16,0,0,1,.18-.17H577a.15.15,0,0,1,.17.17,2.06,2.06,0,1,1-4.12-.11Zm2.09-1.64a.88.88,0,0,0,1-.93.93.93,0,0,0-1-1,.91.91,0,0,0-1,1v.93Z"/><path class="cls-4" d="M581.75,493.84a1.67,1.67,0,0,1-1.41.79,2,2,0,0,1-2-2.13v-4.36a.17.17,0,0,1,.19-.18h.74a.16.16,0,0,1,.18.18v4.4c0,.62.32,1,.86,1s.85-.4.85-1v-4.4a.17.17,0,0,1,.19-.18h.75a.16.16,0,0,1,.17.18v4.4c0,.62.32,1,.86,1s.85-.4.85-1v-4.4a.17.17,0,0,1,.19-.18H585a.16.16,0,0,1,.17.18v4.36a2,2,0,0,1-2,2.13A1.66,1.66,0,0,1,581.75,493.84Z"/><path class="cls-1" d="M643.37,483.62l-.84,1a3.72,3.72,0,0,0-2.43-.92c-2,0-3.55,1.31-3.55,5.11,0,3.62,1.55,5.08,3.53,5.08a4,4,0,0,0,2.64-1l.8,1a4.8,4.8,0,0,1-3.5,1.37c-3,0-5.13-2.25-5.13-6.41s2.31-6.41,5.12-6.41A4.76,4.76,0,0,1,643.37,483.62Z"/><path class="cls-1" d="M648.9,495.07c-.67,2-1.73,3.42-4.27,3.74l-.18-1.18a3.32,3.32,0,0,0,3-2.61h-.52l-3.21-9.47h1.62l2.61,8.37,2.56-8.37h1.56Z"/><path class="cls-1" d="M661.1,494.17l-.36,1.06a1.84,1.84,0,0,1-1.76-1.46,3.2,3.2,0,0,1-2.85,1.46,2.74,2.74,0,0,1-3-2.86c0-2,1.52-3.1,4.11-3.1h1.55v-.75c0-1.41-.67-1.95-2-1.95a8,8,0,0,0-2.55.52l-.38-1.11a8.87,8.87,0,0,1,3.2-.65c2.25,0,3.28,1.15,3.28,3.11v4.4C660.31,493.72,660.6,494,661.1,494.17Zm-2.3-1.62v-2.27h-1.35c-1.77,0-2.7.67-2.7,2a1.57,1.57,0,0,0,1.72,1.78A2.55,2.55,0,0,0,658.8,492.55Z"/><path class="cls-1" d="M670.91,488.23V495H669.4v-6.58c0-1.45-.59-1.92-1.57-1.92a3,3,0,0,0-2.52,1.74V495H663.8v-9.47h1.3l.12,1.44a3.57,3.57,0,0,1,3-1.66A2.58,2.58,0,0,1,670.91,488.23Z"/><path class="cls-1" d="M677.72,495h-1.84l-3.3-9.47h1.66l2.58,8.12,2.53-8.12H681Z"/><path class="cls-1" d="M684.73,482.12a1.07,1.07,0,1,1-1.08-1A1,1,0,0,1,684.73,482.12Zm-.3,12.9h-1.51v-9.47h1.51Z"/><path class="cls-1" d="M694.94,490.8h-6.1c.14,2.29,1.22,3.19,2.64,3.19a4,4,0,0,0,2.49-.85l.67.9a5,5,0,0,1-3.26,1.19c-2.61,0-4.14-1.85-4.14-4.86s1.47-5,3.88-5S695,487.11,695,490C695,490.3,695,490.6,694.94,490.8Zm-1.46-1.26c0-1.91-.75-3-2.32-3-1.31,0-2.2.93-2.32,3.15h4.64Z"/><path class="cls-1" d="M706.28,495h-2.07l-1.74-8.11L700.66,495h-2l-2.25-9.47h1.53l1.78,8.4,1.94-8.4h1.7l1.87,8.4,1.8-8.4h1.44Z"/><path class="cls-1" d="M531.42,520.47c0,2.53-1.57,3.13-2.91,3.13H527v-6.2h1.3C529.9,517.4,531.42,517.89,531.42,520.47Zm-3.54-2.39v4.85h.69c1,0,1.94-.42,1.94-2.46s-1-2.39-2-2.39Z"/><path class="cls-1" d="M536.34,521.51h-3c.08,1.1.59,1.52,1.28,1.52a2,2,0,0,0,1.23-.41l.36.49a2.59,2.59,0,0,1-1.65.6c-1.33,0-2.1-.93-2.1-2.43s.75-2.53,2-2.53,2,.89,2,2.34C536.35,521.25,536.35,521.4,536.34,521.51Zm-.81-.66c0-.93-.36-1.44-1.11-1.44s-1,.44-1.11,1.49h2.22Z"/><path class="cls-1" d="M540.62,519.29l-.35.52a2.17,2.17,0,0,0-1.23-.4c-.54,0-.88.24-.88.62s.25.56,1,.76c1,.25,1.57.65,1.57,1.48,0,1-.9,1.44-1.87,1.44a2.64,2.64,0,0,1-1.79-.62l.44-.51a2.14,2.14,0,0,0,1.33.46c.63,0,1-.27,1-.72s-.23-.65-1.15-.89-1.43-.71-1.43-1.38.73-1.3,1.71-1.3A2.54,2.54,0,0,1,540.62,519.29Z"/><path class="cls-1" d="M545.1,519.26l-.39.52a1.68,1.68,0,0,0-1-.35c-.75,0-1.22.59-1.22,1.82s.47,1.76,1.22,1.76a1.79,1.79,0,0,0,1-.36l.38.54a2.24,2.24,0,0,1-1.45.52c-1.28,0-2.07-.91-2.07-2.44s.79-2.52,2.07-2.52A2.1,2.1,0,0,1,545.1,519.26Z"/><path class="cls-1" d="M548.76,518.8l-.16.81a1.7,1.7,0,0,0-.41-.05c-.6,0-.94.42-1.14,1.33v2.71h-.82v-4.74h.71l.08,1a1.35,1.35,0,0,1,1.27-1.07A2.5,2.5,0,0,1,548.76,518.8Z"/><path class="cls-1" d="M550.69,517.15a.58.58,0,1,1-.58-.57A.54.54,0,0,1,550.69,517.15Zm-.16,6.45h-.83v-4.74h.83Z"/><path class="cls-1" d="M556.17,521.22c0,1.44-.64,2.49-1.86,2.49a1.52,1.52,0,0,1-1.24-.54v2.25l-.83.1v-6.66H553l.06.64a1.73,1.73,0,0,1,1.41-.75C555.68,518.75,556.17,519.73,556.17,521.22Zm-.89,0c0-1.23-.36-1.81-1.07-1.81a1.44,1.44,0,0,0-1.14.73v2.32a1.21,1.21,0,0,0,1,.57C554.87,523,555.28,522.47,555.28,521.22Z"/><path class="cls-1" d="M560,523.38a1.8,1.8,0,0,1-1.06.33,1.19,1.19,0,0,1-1.28-1.35V519.5h-.83v-.64h.83v-1.07l.83-.1v1.17h1.12l-.09.64h-1v2.82c0,.48.15.7.56.7a1.16,1.16,0,0,0,.63-.2Z"/><path class="cls-1" d="M561.82,517.15a.54.54,0,0,1-.58.55.56.56,0,1,1,.58-.55Zm-.16,6.45h-.83v-4.74h.83Z"/><path class="cls-1" d="M567.26,521.22c0,1.47-.77,2.49-2.12,2.49s-2.11-1-2.11-2.48.77-2.48,2.12-2.48S567.26,519.72,567.26,521.22Zm-3.34,0c0,1.24.43,1.81,1.22,1.81s1.23-.57,1.23-1.82-.43-1.81-1.22-1.81S563.92,520,563.92,521.23Z"/><path class="cls-1" d="M572.24,520.2v3.4h-.83v-3.29c0-.71-.29-.91-.75-.91a1.45,1.45,0,0,0-1.21.83v3.37h-.82v-4.74h.71l.07.7a1.71,1.71,0,0,1,1.45-.81A1.3,1.3,0,0,1,572.24,520.2Z"/><rect class="cls-5" x="319.42" y="468.91" width="203.07" height="108.3"/><line class="cls-5" x1="319.42" y1="555.55" x2="522.49" y2="555.55"/><line class="cls-5" x1="319.42" y1="533.89" x2="522.49" y2="533.89"/><line class="cls-5" x1="319.42" y1="512.23" x2="522.49" y2="512.23"/><line class="cls-5" x1="319.42" y1="490.57" x2="522.49" y2="490.57"/><rect class="cls-6" x="522.49" y="468.91" width="297.72" height="43.32"/><rect class="cls-7" x="22.87" y="468.91" width="296.55" height="108.3"/><rect class="cls-6" x="522.49" y="512.23" width="297.72" height="64.98"/><path class="cls-1" d="M770.73,523.6h-.83v-5.14l-1.41.86-.35-.59,1.86-1.15h.73Z"/><path class="cls-1" d="M775.58,519.13c0,1.13-.72,1.93-2.57,3.78h2.71l-.1.69h-3.55v-.66c2.12-2.21,2.65-2.79,2.65-3.77a.93.93,0,0,0-1-1,1.49,1.49,0,0,0-1.23.66l-.56-.43a2.21,2.21,0,0,1,1.83-.91A1.65,1.65,0,0,1,775.58,519.13Z"/><path class="cls-1" d="M779.91,516.5l-2.08,8-.71-.17,2.09-8Z"/><path class="cls-1" d="M784.93,520.59c0,2-.67,3.12-2,3.12s-2-1.12-2-3.12.66-3.1,2-3.1S784.93,518.6,784.93,520.59Zm-3.17,0c0,1.78.4,2.46,1.15,2.46s1.16-.68,1.16-2.46-.41-2.45-1.16-2.45S781.76,518.83,781.76,520.59Z"/><path class="cls-1" d="M789.94,522.12h-.78v1.48h-.8v-1.48h-2.58v-.6l1.81-4,.7.29-1.63,3.68h1.71l.07-1.62h.72v1.62h.78Z"/><path class="cls-1" d="M793.77,516.5l-2.08,8-.71-.17,2.09-8Z"/><path class="cls-1" d="M798.3,519.13c0,1.13-.72,1.93-2.56,3.78h2.71l-.1.69h-3.56v-.66c2.13-2.21,2.65-2.79,2.65-3.77a.93.93,0,0,0-1-1,1.47,1.47,0,0,0-1.22.66l-.56-.43a2.2,2.2,0,0,1,1.82-.91A1.65,1.65,0,0,1,798.3,519.13Z"/><path class="cls-1" d="M803.43,520.59c0,2-.67,3.12-2,3.12s-2-1.12-2-3.12.67-3.1,2-3.1S803.43,518.6,803.43,520.59Zm-3.17,0c0,1.78.39,2.46,1.15,2.46s1.15-.68,1.15-2.46-.4-2.45-1.15-2.45S800.26,518.83,800.26,520.59Z"/><path class="cls-1" d="M807.78,519.13c0,1.13-.72,1.93-2.57,3.78h2.71l-.09.69h-3.56v-.66c2.12-2.21,2.65-2.79,2.65-3.77a.93.93,0,0,0-1-1,1.49,1.49,0,0,0-1.23.66l-.56-.43a2.21,2.21,0,0,1,1.83-.91A1.65,1.65,0,0,1,807.78,519.13Z"/><path class="cls-1" d="M812.89,522.12h-.78v1.48h-.8v-1.48h-2.58v-.6l1.81-4,.7.29-1.63,3.68h1.71l.07-1.62h.72v1.62h.78Z"/><rect class="cls-6" x="22.87" y="19.81" width="797.34" height="557.4"/></g><g id="Labels"><path class="cls-1" d="M330.78,478.25c0,1.42-1,2-2.4,2h-.78v2.28h-.86v-6.21h1.63C329.87,476.33,330.78,477,330.78,478.25Zm-.91,0c0-.93-.59-1.26-1.51-1.26h-.76v2.58h.74C329.26,479.58,329.87,479.31,329.87,478.26Z"/><path class="cls-1" d="M334.18,481h-2.35l-.47,1.56h-.87l2-6.21h1.08l2,6.21h-.9Zm-.21-.69L333,477l-1,3.25Z"/><path class="cls-1" d="M338.32,479.91h-1v2.63h-.85v-6.21h1.63c1.55,0,2.36.6,2.36,1.76a1.62,1.62,0,0,1-1.35,1.66l1.68,2.79h-1Zm-.1-.66c.86,0,1.36-.32,1.36-1.16s-.44-1.09-1.46-1.09h-.77v2.25Z"/><path class="cls-1" d="M345.43,477.06h-1.72v5.48h-.86v-5.48h-1.76v-.73h4.43Z"/><path class="cls-1" d="M353.24,482.54H352.1l-2.52-5.27c0,.51.11,1.27.11,2.42v2.85h-.8v-6.21H350l2.55,5.28c0-.15-.12-1.14-.12-1.89v-3.39h.8Z"/><path class="cls-1" d="M354.63,477.67a1.48,1.48,0,1,1,1.48,1.44A1.42,1.42,0,0,1,354.63,477.67Zm2.26,0a.79.79,0,0,0-.78-.88.89.89,0,1,0,.78.88Z"/><path class="cls-1" d="M38.53,482.54H37.39l-2.53-5.27a23.06,23.06,0,0,1,.12,2.42v2.85h-.8v-6.21H35.3l2.55,5.28c0-.15-.12-1.14-.12-1.89v-3.39h.8Z"/><path class="cls-1" d="M45.16,479.44c0,2.05-1.06,3.2-2.62,3.2s-2.62-1.11-2.62-3.19,1.07-3.22,2.62-3.22S45.16,477.35,45.16,479.44Zm-4.33,0c0,1.79.7,2.49,1.71,2.49s1.71-.7,1.71-2.5-.64-2.51-1.71-2.51S40.83,477.66,40.83,479.45Z"/><path class="cls-1" d="M50,477.06H48.23v5.48h-.85v-5.48H45.61v-.73H50Z"/><path class="cls-1" d="M54.29,477H51.88v2H54v.69H51.88v2.12h2.58v.69H51v-6.21h3.36Z"/><path class="cls-1" d="M59.29,477l-.47.52a2.1,2.1,0,0,0-1.41-.54c-.62,0-1.12.29-1.12.88s.25.77,1.36,1.12,1.84.69,1.84,1.88-.82,1.83-2.21,1.83a2.87,2.87,0,0,1-2.11-.8l.48-.53a2.35,2.35,0,0,0,1.62.63c.73,0,1.33-.36,1.33-1.11,0-.6-.29-.87-1.34-1.19-1.21-.37-1.84-.83-1.84-1.79a1.73,1.73,0,0,1,1.95-1.62A2.6,2.6,0,0,1,59.29,477Z"/><path class="cls-1" d="M332.4,497.43l-.81.95a2.28,2.28,0,0,0-1.54-.6c-1.14,0-2,.84-2,3.08s.87,3.07,2.05,3.07a2.7,2.7,0,0,0,1.68-.7l.75,1a3.49,3.49,0,0,1-2.5,1c-2.14,0-3.64-1.52-3.64-4.34s1.58-4.31,3.59-4.31A3.43,3.43,0,0,1,332.4,497.43Z"/><path class="cls-1" d="M336.9,501.88V505h-1.6v-3.13l-2.67-5.16h1.75l1.76,3.85,1.75-3.85h1.68Z"/><path class="cls-1" d="M339.57,500.65h3.62v1.23h-3.62Z"/><path class="cls-1" d="M350.37,497.43l-.82.95a2.28,2.28,0,0,0-1.53-.6c-1.14,0-2,.84-2,3.08s.86,3.07,2.05,3.07a2.7,2.7,0,0,0,1.68-.7l.74,1a3.47,3.47,0,0,1-2.49,1c-2.15,0-3.65-1.52-3.65-4.34s1.58-4.31,3.6-4.31A3.46,3.46,0,0,1,350.37,497.43Z"/><path class="cls-1" d="M357.55,502.63c0,1.83-1.45,2.39-3.46,2.39h-2.5v-8.29h2.17c2.14,0,3.43.6,3.43,2.11a1.81,1.81,0,0,1-1.53,1.79C356.61,500.81,357.55,501.25,357.55,502.63Zm-4.37-4.73v2.24h1c.86,0,1.42-.39,1.42-1.17s-.57-1.07-1.65-1.07Zm2.72,4.67c0-1-.71-1.33-1.63-1.33h-1.09v2.59h.92C355.14,503.83,355.9,503.62,355.9,502.57Z"/><path class="cls-1" d="M360.53,503.72h3.32l-.18,1.3H359v-8.29h1.58Z"/><path class="cls-1" d="M364.19,500.65h3.63v1.23h-3.63Z"/><path class="cls-1" d="M371.25,503.81c0,1.93-1.07,2.62-2.44,3.07l-.42-1.14c1.08-.42,1.26-.95,1.26-2v-7h1.6Z"/><path class="cls-1" d="M377,503.1h-2.75l-.51,1.92h-1.65l2.58-8.29h2l2.56,8.29h-1.68Zm-.31-1.2-1.07-4-1.06,4Z"/><path class="cls-1" d="M385.37,497.43l-.82.95a2.26,2.26,0,0,0-1.53-.6c-1.14,0-2,.84-2,3.08s.87,3.07,2.05,3.07a2.7,2.7,0,0,0,1.68-.7l.75,1a3.49,3.49,0,0,1-2.5,1c-2.15,0-3.65-1.52-3.65-4.34s1.59-4.31,3.6-4.31A3.45,3.45,0,0,1,385.37,497.43Z"/><path class="cls-1" d="M388.18,505H386.6v-8.29h1.58Zm1.79-4.53,3.09,4.53h-1.88l-2.93-4.43,2.87-3.86h1.71Z"/><path class="cls-1" d="M393.24,500.65h3.63v1.23h-3.63Z"/><path class="cls-1" d="M404.44,497.52l-.87.9a2.49,2.49,0,0,0-1.72-.67c-1.18,0-2.19.89-2.19,3.12s.68,3.12,2,3.12a2.61,2.61,0,0,0,1.32-.33v-2.15H401.7l-.17-1.18h3v4.05a5.38,5.38,0,0,1-2.92.82c-2.3,0-3.59-1.49-3.59-4.33s1.74-4.32,3.78-4.32A3.81,3.81,0,0,1,404.44,497.52Z"/><path class="cls-1" d="M411.91,499.37c0,1.91-1.38,2.76-3.25,2.76h-1V505h-1.58v-8.29h2.44C410.64,496.73,411.91,497.58,411.91,499.37Zm-1.65,0c0-1-.64-1.47-1.72-1.47h-.85v3h.85C409.6,500.94,410.26,500.58,410.26,499.37Z"/><path class="cls-1" d="M414.78,505H413.2v-8.29h1.58Z"/><path class="cls-1" d="M423.53,500.87c0,2.73-1.41,4.33-3.62,4.33s-3.64-1.55-3.64-4.32,1.42-4.33,3.64-4.33S423.53,498.1,423.53,500.87Zm-5.59,0c0,2.23.76,3.11,2,3.11s1.95-.88,1.95-3.12-.71-3.11-1.95-3.11S417.94,498.65,417.94,500.88Z"/><path class="cls-1" d="M429.47,499.07c0,1.37-.78,2.36-3.27,4.74h3.45l-.17,1.21h-5v-1.13c2.75-2.8,3.43-3.56,3.43-4.7a1.09,1.09,0,0,0-1.17-1.17,1.87,1.87,0,0,0-1.54.85l-.95-.75a3.16,3.16,0,0,1,2.61-1.32A2.34,2.34,0,0,1,429.47,499.07Z"/><path class="cls-1" d="M563.23,535.25c0,1.36-.78,2.36-3.28,4.73h3.46l-.17,1.21h-5v-1.12c2.75-2.81,3.43-3.57,3.43-4.7a1.09,1.09,0,0,0-1.17-1.18,1.87,1.87,0,0,0-1.54.85l-1-.74A3.16,3.16,0,0,1,560.6,533,2.34,2.34,0,0,1,563.23,535.25Z"/><path class="cls-1" d="M569.92,541.19h-1.77l-1.31-2.51-1.29,2.51h-1.69l2.11-3.34-1.9-3h1.75L566.9,537l1.07-2.16h1.67l-1.84,2.95Z"/><path class="cls-1" d="M579.85,533.7l-.86.9a2.47,2.47,0,0,0-1.73-.67c-1.18,0-2.19.88-2.19,3.11s.68,3.12,2,3.12a2.58,2.58,0,0,0,1.32-.32v-2.16h-1.25L577,536.5h3v4.06a5.46,5.46,0,0,1-2.91.81c-2.31,0-3.6-1.48-3.6-4.33s1.74-4.31,3.78-4.31A3.81,3.81,0,0,1,579.85,533.7Z"/><path class="cls-1" d="M587.32,535.55c0,1.9-1.37,2.75-3.25,2.75h-1v2.89h-1.58v-8.28H584C586.05,532.91,587.32,533.76,587.32,535.55Zm-1.65,0c0-1-.64-1.48-1.72-1.48h-.85v3H584C585,537.12,585.67,536.76,585.67,535.55Z"/><path class="cls-1" d="M590.2,541.19h-1.59v-8.28h1.59Z"/><path class="cls-1" d="M598.94,537c0,2.74-1.4,4.33-3.62,4.33s-3.64-1.54-3.64-4.31,1.42-4.33,3.64-4.33S598.94,534.27,598.94,537Zm-5.59,0c0,2.23.76,3.1,2,3.1s1.95-.87,1.95-3.12-.7-3.1-1.95-3.1S593.35,534.83,593.35,537.06Z"/><path class="cls-1" d="M608.55,540.33l-.32,1a1.46,1.46,0,0,1-1.41-.92,2.14,2.14,0,0,1-1.89.94,1.88,1.88,0,0,1-2-2c0-1.38,1-2.12,2.89-2.12h.79v-.36c0-.83-.37-1.11-1.19-1.11a5.48,5.48,0,0,0-1.67.34l-.36-1a6.49,6.49,0,0,1,2.3-.46c1.69,0,2.43.78,2.43,2.18v2.67C608.07,540,608.24,540.21,608.55,540.33Zm-2-.85V538.2h-.63c-1,0-1.49.36-1.49,1.1a.84.84,0,0,0,.9,1A1.36,1.36,0,0,0,606.56,539.48Z"/><path class="cls-1" d="M614.55,535.41l-.68.93a2,2,0,0,0-1.28-.46c-.89,0-1.43.65-1.43,2.17s.56,2.08,1.43,2.08a2.21,2.21,0,0,0,1.28-.46l.68,1a3.09,3.09,0,0,1-2,.73c-1.83,0-3-1.27-3-3.29s1.14-3.41,3-3.41A3,3,0,0,1,614.55,535.41Z"/><path class="cls-1" d="M620.17,535.41l-.68.93a2.06,2.06,0,0,0-1.29-.46c-.89,0-1.43.65-1.43,2.17s.57,2.08,1.43,2.08a2.24,2.24,0,0,0,1.29-.46l.68,1a3.13,3.13,0,0,1-2,.73c-1.84,0-3-1.27-3-3.29s1.14-3.41,3-3.41A3,3,0,0,1,620.17,535.41Z"/><path class="cls-1" d="M626.34,538.5h-4c.11,1.29.71,1.71,1.55,1.71a2.66,2.66,0,0,0,1.59-.56l.63.87a3.6,3.6,0,0,1-2.35.85c-2,0-3-1.3-3-3.31s1-3.39,2.82-3.39,2.79,1.2,2.79,3.2C626.37,538.08,626.35,538.33,626.34,538.5Zm-1.49-1.07c0-1-.37-1.67-1.24-1.67s-1.17.48-1.25,1.74h2.49Z"/><path class="cls-1" d="M632.05,535.43l-.6.9a2.87,2.87,0,0,0-1.6-.52c-.61,0-1,.25-1,.64s.25.61,1.33.91c1.29.34,2,.87,2,2,0,1.32-1.22,2-2.67,2a3.71,3.71,0,0,1-2.53-.9l.77-.86a2.88,2.88,0,0,0,1.72.63c.69,0,1.13-.29,1.13-.77s-.25-.7-1.44-1-1.88-1-1.88-1.92,1-1.85,2.44-1.85A3.56,3.56,0,0,1,632.05,535.43Z"/><path class="cls-1" d="M637.76,535.43l-.6.9a2.86,2.86,0,0,0-1.59-.52c-.62,0-1,.25-1,.64s.25.61,1.33.91c1.29.34,2,.87,2,2,0,1.32-1.22,2-2.67,2a3.71,3.71,0,0,1-2.53-.9l.77-.86a2.88,2.88,0,0,0,1.72.63c.69,0,1.13-.29,1.13-.77s-.25-.7-1.44-1-1.88-1-1.88-1.92,1-1.85,2.45-1.85A3.55,3.55,0,0,1,637.76,535.43Z"/><path class="cls-1" d="M644.78,538c0,2-1.12,3.35-3,3.35s-3-1.27-3-3.35,1.11-3.35,3-3.35S644.78,535.94,644.78,538Zm-4.35,0c0,1.52.46,2.19,1.36,2.19s1.37-.68,1.37-2.19-.47-2.19-1.35-2.19S640.43,536.52,640.43,538Z"/><path class="cls-1" d="M650,534.77l-.26,1.48a2.62,2.62,0,0,0-.57-.07c-.78,0-1.16.57-1.4,1.64v3.37h-1.54v-6.34h1.33l.15,1.25a1.79,1.79,0,0,1,1.65-1.42A2.25,2.25,0,0,1,650,534.77Z"/><path class="cls-1" d="M654.23,541.22a3.41,3.41,0,0,1-3.3,2.59l-.16-1.12a2.12,2.12,0,0,0,2-1.5h-.53l-2-6.34h1.63l1.38,5.32,1.43-5.32h1.59Z"/><path class="cls-1" d="M664.84,535.41l-.68.93a2,2,0,0,0-1.28-.46c-.89,0-1.43.65-1.43,2.17s.56,2.08,1.43,2.08a2.21,2.21,0,0,0,1.28-.46l.68,1a3.09,3.09,0,0,1-2.05.73c-1.83,0-3-1.27-3-3.29s1.14-3.41,3-3.41A3,3,0,0,1,664.84,535.41Z"/><path class="cls-1" d="M671.13,540.33l-.32,1a1.46,1.46,0,0,1-1.41-.92,2.14,2.14,0,0,1-1.89.94,1.88,1.88,0,0,1-2-2c0-1.38,1-2.12,2.89-2.12h.79v-.36c0-.83-.37-1.11-1.19-1.11a5.6,5.6,0,0,0-1.68.34l-.36-1a6.59,6.59,0,0,1,2.31-.46c1.69,0,2.43.78,2.43,2.18v2.67C670.65,540,670.82,540.21,671.13,540.33Zm-2-.85V538.2h-.64c-1,0-1.48.36-1.48,1.1a.84.84,0,0,0,.9,1A1.36,1.36,0,0,0,669.14,539.48Z"/><path class="cls-1" d="M678.15,538c0,2-.95,3.35-2.5,3.35a2.08,2.08,0,0,1-1.68-.82l-.1.64h-1.35v-8.88l1.53-.17v3.42a2.13,2.13,0,0,1,1.73-.89C677.29,534.67,678.15,535.89,678.15,538Zm-1.61,0c0-1.69-.5-2.2-1.23-2.2a1.52,1.52,0,0,0-1.26.86v2.81a1.44,1.44,0,0,0,1.19.73C676,540.22,676.54,539.61,676.54,538Z"/><path class="cls-1" d="M679.61,539.74v-7.43l1.53-.17v7.56c0,.3.11.44.36.44a1,1,0,0,0,.36-.06l.33,1.08a2.57,2.57,0,0,1-1,.21A1.45,1.45,0,0,1,679.61,539.74Z"/><path class="cls-1" d="M688.26,538.5h-4c.12,1.29.72,1.71,1.56,1.71a2.68,2.68,0,0,0,1.59-.56l.63.87a3.6,3.6,0,0,1-2.35.85c-2,0-3-1.3-3-3.31s1-3.39,2.82-3.39,2.79,1.2,2.79,3.2C688.29,538.08,688.27,538.33,688.26,538.5Zm-1.49-1.07c0-1-.37-1.67-1.24-1.67s-1.17.48-1.26,1.74h2.5Z"/><path class="cls-1" d="M694.43,534.18v.67H696l-.17,1.1h-1.35v5.24h-1.54V536h-1v-1.1h1v-.7a2,2,0,0,1,2.23-2,3.7,3.7,0,0,1,1.64.37l-.44,1a2.43,2.43,0,0,0-1-.24C694.65,533.3,694.43,533.58,694.43,534.18Z"/><path class="cls-1" d="M702.32,538c0,2-1.12,3.35-3,3.35s-3-1.27-3-3.35,1.11-3.35,3-3.35S702.32,535.94,702.32,538ZM698,538c0,1.52.46,2.19,1.36,2.19s1.37-.68,1.37-2.19-.47-2.19-1.36-2.19S698,536.52,698,538Z"/><path class="cls-1" d="M707.53,534.77l-.27,1.48a2.45,2.45,0,0,0-.56-.07c-.78,0-1.16.57-1.4,1.64v3.37h-1.54v-6.34h1.33l.15,1.25a1.79,1.79,0,0,1,1.65-1.42A2.25,2.25,0,0,1,707.53,534.77Z"/><path class="cls-1" d="M714.13,537.87h-1v3.32h-1.58v-8.28H714c2.17,0,3.29.79,3.29,2.43a2.23,2.23,0,0,1-1.68,2.24l2.17,3.61H716Zm-1-1.14h1c1,0,1.53-.39,1.53-1.39s-.52-1.28-1.67-1.28h-.85Z"/><path class="cls-1" d="M724.34,533.6l-.82.95A2.26,2.26,0,0,0,722,534c-1.14,0-2,.84-2,3.08s.86,3.07,2,3.07a2.69,2.69,0,0,0,1.68-.69l.75,1a3.53,3.53,0,0,1-2.5,1c-2.15,0-3.65-1.52-3.65-4.34s1.59-4.3,3.6-4.3A3.49,3.49,0,0,1,724.34,533.6Z"/><path class="cls-1" d="M731.37,535.55c0,1.9-1.38,2.75-3.25,2.75h-1v2.89h-1.58v-8.28H728C730.1,532.91,731.37,533.76,731.37,535.55Zm-1.65,0c0-1-.64-1.48-1.72-1.48h-.85v3H728C729.06,537.12,729.72,536.76,729.72,535.55Z"/><path class="cls-1" d="M36.79,496.33H35.61v3.22h-1V492h2c1.89,0,2.88.72,2.88,2.14a2,2,0,0,1-1.64,2l2.05,3.4H38.61Zm-.12-.8c1.06,0,1.66-.4,1.66-1.42s-.54-1.33-1.78-1.33h-.94v2.75Z"/><path class="cls-1" d="M45.87,492.58l-.57.67a2.28,2.28,0,0,0-1.47-.56c-1.14,0-2.1.77-2.1,3.06s.91,3.05,2.09,3.05a2.54,2.54,0,0,0,1.61-.64l.52.67a2.93,2.93,0,0,1-2.16.85c-1.84,0-3.17-1.38-3.17-3.93s1.43-3.92,3.15-3.92A3,3,0,0,1,45.87,492.58Z"/><path class="cls-1" d="M52.21,494.31c0,1.74-1.26,2.45-2.93,2.45h-1v2.79h-1V492h2C51.09,492,52.21,492.71,52.21,494.31Zm-1.11,0c0-1.13-.72-1.54-1.85-1.54h-.93v3.16h.91C50.36,495.94,51.1,495.61,51.1,494.32Z"/><path class="cls-1" d="M60.91,499l-.23.71a1.18,1.18,0,0,1-1.13-.87,2,2,0,0,1-1.73.87A1.68,1.68,0,0,1,56,497.93c0-1.24.93-1.91,2.55-1.91h.89v-.43c0-.84-.41-1.15-1.21-1.15a5.1,5.1,0,0,0-1.56.31l-.26-.74a5.81,5.81,0,0,1,2-.39c1.39,0,2,.71,2,1.92v2.65C60.43,498.7,60.62,498.87,60.91,499Zm-1.49-1v-1.33h-.76c-1.07,0-1.61.39-1.61,1.19a.91.91,0,0,0,1,1A1.5,1.5,0,0,0,59.42,498Z"/><path class="cls-1" d="M66.39,494.24l-.48.64a2,2,0,0,0-1.24-.43c-.92,0-1.49.72-1.49,2.23s.57,2.14,1.49,2.14a2.12,2.12,0,0,0,1.26-.44l.46.66a2.71,2.71,0,0,1-1.77.64c-1.56,0-2.53-1.11-2.53-3s1-3.08,2.53-3.08A2.58,2.58,0,0,1,66.39,494.24Z"/><path class="cls-1" d="M71.54,494.24l-.48.64a2,2,0,0,0-1.25-.43c-.91,0-1.48.72-1.48,2.23s.57,2.14,1.48,2.14a2.13,2.13,0,0,0,1.27-.44l.46.66a2.71,2.71,0,0,1-1.77.64c-1.56,0-2.53-1.11-2.53-3s1-3.08,2.53-3.08A2.58,2.58,0,0,1,71.54,494.24Z"/><path class="cls-1" d="M77.16,497H73.47c.1,1.35.72,1.86,1.56,1.86a2.42,2.42,0,0,0,1.5-.5l.45.6a3.21,3.21,0,0,1-2,.73c-1.62,0-2.56-1.13-2.56-3s.91-3.09,2.41-3.09,2.38,1.09,2.38,2.86C77.18,496.68,77.17,496.86,77.16,497Zm-1-.81c0-1.13-.45-1.76-1.36-1.76s-1.28.54-1.35,1.83h2.71Z"/><path class="cls-1" d="M82.4,494.28l-.43.64a2.62,2.62,0,0,0-1.51-.5c-.66,0-1.07.3-1.07.76s.31.69,1.25.93c1.22.31,1.92.8,1.92,1.81,0,1.21-1.11,1.76-2.29,1.76a3.2,3.2,0,0,1-2.18-.76l.53-.62a2.63,2.63,0,0,0,1.63.57c.76,0,1.25-.33,1.25-.89s-.29-.79-1.41-1.08-1.75-.87-1.75-1.69.89-1.59,2.09-1.59A3.08,3.08,0,0,1,82.4,494.28Z"/><path class="cls-1" d="M87.53,494.28l-.42.64a2.62,2.62,0,0,0-1.51-.5c-.66,0-1.07.3-1.07.76s.31.69,1.24.93c1.23.31,1.93.8,1.93,1.81,0,1.21-1.11,1.76-2.29,1.76a3.22,3.22,0,0,1-2.19-.76l.54-.62a2.58,2.58,0,0,0,1.63.57c.76,0,1.24-.33,1.24-.89s-.28-.79-1.41-1.08-1.74-.87-1.74-1.69.89-1.59,2.09-1.59A3,3,0,0,1,87.53,494.28Z"/><path class="cls-1" d="M93.88,496.64c0,1.8-.94,3-2.58,3s-2.59-1.19-2.59-3,1-3,2.6-3S93.88,494.81,93.88,496.64Zm-4.08,0c0,1.51.53,2.22,1.5,2.22s1.49-.71,1.49-2.23-.53-2.21-1.48-2.21S89.8,495.13,89.8,496.65Z"/><path class="cls-1" d="M98.64,493.68l-.18,1a2,2,0,0,0-.51-.06c-.72,0-1.14.51-1.38,1.63v3.31h-1v-5.8h.87l.1,1.18a1.66,1.66,0,0,1,1.55-1.31A2.62,2.62,0,0,1,98.64,493.68Z"/><path class="cls-1" d="M102.23,499.58a3,3,0,0,1-2.7,2.31l-.1-.79a2,2,0,0,0,1.83-1.55h-.34l-2-5.8h1.08l1.55,5.06,1.52-5.06h1Z"/><path class="cls-1" d="M111.16,499.28a2.16,2.16,0,0,1-1.3.4A1.46,1.46,0,0,1,108.3,498v-3.5h-1v-.78h1v-1.31l1-.12v1.43h1.38l-.11.78h-1.27V498c0,.59.19.86.7.86a1.4,1.4,0,0,0,.77-.25Z"/><path class="cls-1" d="M116.62,495.39v4.16h-1v-4c0-.87-.38-1.12-.93-1.12a1.78,1.78,0,0,0-1.46,1v4.13h-1v-8.12l1-.11v3.23a2.09,2.09,0,0,1,1.72-.93A1.6,1.6,0,0,1,116.62,495.39Z"/><path class="cls-1" d="M123,499l-.23.71a1.18,1.18,0,0,1-1.13-.87,2,2,0,0,1-1.73.87,1.69,1.69,0,0,1-1.85-1.75c0-1.24.94-1.91,2.56-1.91h.89v-.43c0-.84-.41-1.15-1.21-1.15a5.21,5.21,0,0,0-1.57.31l-.25-.74a5.76,5.76,0,0,1,2-.39c1.4,0,2,.71,2,1.92v2.65C122.56,498.7,122.75,498.87,123,499Zm-1.49-1v-1.33h-.76c-1.07,0-1.61.39-1.61,1.19a.91.91,0,0,0,1,1A1.5,1.5,0,0,0,121.55,498Z"/><path class="cls-1" d="M127.56,499.28a2.15,2.15,0,0,1-1.29.4A1.46,1.46,0,0,1,124.7,498v-3.5h-1v-.78h1v-1.31l1-.12v1.43h1.37l-.11.78h-1.26V498c0,.59.18.86.69.86a1.4,1.4,0,0,0,.77-.25Z"/><path class="cls-1" d="M136.33,496.64c0,1.76-.78,3-2.28,3a1.86,1.86,0,0,1-1.51-.66v2.75l-1,.12v-8.14h.87l.08.78a2.12,2.12,0,0,1,1.72-.91C135.73,493.62,136.33,494.82,136.33,496.64Zm-1.09,0c0-1.51-.44-2.22-1.31-2.22a1.75,1.75,0,0,0-1.39.9v2.83a1.47,1.47,0,0,0,1.27.7C134.74,498.85,135.24,498.16,135.24,496.64Z"/><path class="cls-1" d="M141.15,493.68l-.19,1a2,2,0,0,0-.5-.06c-.73,0-1.15.51-1.39,1.63v3.31h-1v-5.8h.87l.1,1.18a1.64,1.64,0,0,1,1.55-1.31A2.76,2.76,0,0,1,141.15,493.68Z"/><path class="cls-1" d="M147,496.64c0,1.8-.95,3-2.59,3s-2.58-1.19-2.58-3,.94-3,2.59-3S147,494.81,147,496.64Zm-4.09,0c0,1.51.53,2.22,1.5,2.22s1.5-.71,1.5-2.23-.53-2.21-1.49-2.21S142.86,495.13,142.86,496.65Z"/><path class="cls-1" d="M150.69,499.55h-1.23l-2-5.8h1.1l1.52,4.89,1.51-4.89h1.06Z"/><path class="cls-1" d="M155,491.66a.71.71,0,0,1-1.42,0,.71.71,0,0,1,1.42,0Zm-.2,7.89h-1v-5.8h1Z"/><path class="cls-1" d="M161.4,491.42v8.13h-.89l-.1-.81a1.93,1.93,0,0,1-1.67.94c-1.41,0-2.19-1.2-2.19-3s.86-3.06,2.27-3.06a2.08,2.08,0,0,1,1.57.71v-3Zm-1,6.6v-2.84a1.68,1.68,0,0,0-1.34-.76c-.87,0-1.41.73-1.41,2.23s.48,2.23,1.32,2.23A1.67,1.67,0,0,0,160.39,498Z"/><path class="cls-1" d="M167.85,497h-3.7c.1,1.35.73,1.86,1.56,1.86a2.47,2.47,0,0,0,1.51-.5l.44.6a3.17,3.17,0,0,1-2,.73c-1.61,0-2.56-1.13-2.56-3s.91-3.09,2.41-3.09,2.39,1.09,2.39,2.86C167.87,496.68,167.86,496.86,167.85,497Zm-1-.81c0-1.13-.45-1.76-1.37-1.76s-1.27.54-1.35,1.83h2.72Z"/><path class="cls-1" d="M173.08,494.28l-.43.64a2.59,2.59,0,0,0-1.5-.5c-.66,0-1.07.3-1.07.76s.31.69,1.24.93c1.22.31,1.93.8,1.93,1.81,0,1.21-1.11,1.76-2.29,1.76a3.22,3.22,0,0,1-2.19-.76l.54-.62a2.58,2.58,0,0,0,1.63.57c.76,0,1.24-.33,1.24-.89s-.29-.79-1.41-1.08S169,496,169,495.21s.89-1.59,2.09-1.59A3.06,3.06,0,0,1,173.08,494.28Z"/><path class="cls-1" d="M181.27,494.09c0,1.37-.88,2.35-3.14,4.61h3.31l-.12.85H177v-.81c2.6-2.7,3.24-3.41,3.24-4.61a1.14,1.14,0,0,0-1.21-1.22,1.83,1.83,0,0,0-1.5.81l-.68-.53a2.71,2.71,0,0,1,2.23-1.11A2,2,0,0,1,181.27,494.09Z"/><path class="cls-1" d="M187.27,499.55h-1.22l-1.42-2.46-1.44,2.46h-1.14l2-3.06-1.79-2.74h1.19l1.21,2.12,1.22-2.12H187l-1.78,2.69Z"/><path class="cls-1" d="M196.41,492.67l-.61.64a2.38,2.38,0,0,0-1.66-.62c-1.09,0-2.18.83-2.18,3.06s.73,3.07,2.07,3.07a2.87,2.87,0,0,0,1.44-.35v-2.28h-1.35l-.12-.85h2.5V499a4.77,4.77,0,0,1-2.55.67c-1.88,0-3.1-1.31-3.1-3.93s1.56-3.92,3.26-3.92A3.25,3.25,0,0,1,196.41,492.67Z"/><path class="cls-1" d="M203.22,494.31c0,1.74-1.26,2.45-2.94,2.45h-.95v2.79h-1.05V492h2C202.1,492,203.22,492.71,203.22,494.31Zm-1.11,0c0-1.13-.73-1.54-1.85-1.54h-.93v3.16h.91C201.36,495.94,202.11,495.61,202.11,494.32Z"/><path class="cls-1" d="M205.72,499.55h-1.05V492h1.05Z"/><path class="cls-1" d="M213.83,495.76c0,2.51-1.3,3.92-3.21,3.92s-3.2-1.37-3.2-3.91,1.31-3.94,3.2-3.94S213.83,493.21,213.83,495.76Zm-5.3,0c0,2.19.86,3.05,2.09,3.05s2.09-.86,2.09-3.06-.79-3.07-2.09-3.07S208.53,493.58,208.53,495.77Z"/><path class="cls-1" d="M223.69,499.55h-1.37l-1-4.89-1.05,4.89h-1.34l-1.35-5.8h1l1,5.09,1.15-5.09h1.13l1.09,5.09,1.06-5.09h1Z"/><path class="cls-1" d="M230.69,495.39v4.16h-1v-4c0-.87-.38-1.12-.93-1.12a1.78,1.78,0,0,0-1.46,1v4.13h-1v-8.12l1-.11v3.23a2.09,2.09,0,0,1,1.72-.93A1.6,1.6,0,0,1,230.69,495.39Z"/><path class="cls-1" d="M233.93,491.66a.71.71,0,1,1-.71-.69A.67.67,0,0,1,233.93,491.66Zm-.19,7.89h-1v-5.8h1Z"/><path class="cls-1" d="M239.71,494.24l-.49.64a2,2,0,0,0-1.24-.43c-.91,0-1.48.72-1.48,2.23s.57,2.14,1.48,2.14a2.13,2.13,0,0,0,1.27-.44l.46.66a2.73,2.73,0,0,1-1.77.64c-1.56,0-2.53-1.11-2.53-3s1-3.08,2.53-3.08A2.58,2.58,0,0,1,239.71,494.24Z"/><path class="cls-1" d="M245.49,495.39v4.16h-1v-4c0-.87-.37-1.12-.92-1.12a1.77,1.77,0,0,0-1.46,1v4.13h-1v-8.12l1-.11v3.23a2.07,2.07,0,0,1,1.71-.93A1.59,1.59,0,0,1,245.49,495.39Z"/><path class="cls-1" d="M254.33,494.24l-.49.64a2,2,0,0,0-1.24-.43c-.91,0-1.49.72-1.49,2.23s.58,2.14,1.49,2.14a2.15,2.15,0,0,0,1.27-.44l.46.66a2.73,2.73,0,0,1-1.77.64c-1.57,0-2.53-1.11-2.53-3s.95-3.08,2.53-3.08A2.58,2.58,0,0,1,254.33,494.24Z"/><path class="cls-1" d="M260.09,499l-.23.71a1.17,1.17,0,0,1-1.13-.87,2,2,0,0,1-1.73.87,1.69,1.69,0,0,1-1.85-1.75c0-1.24.94-1.91,2.55-1.91h.9v-.43c0-.84-.41-1.15-1.21-1.15a5.21,5.21,0,0,0-1.57.31l-.25-.74a5.72,5.72,0,0,1,2-.39c1.4,0,2,.71,2,1.92v2.65C259.61,498.7,259.79,498.87,260.09,499Zm-1.49-1v-1.33h-.76c-1.07,0-1.61.39-1.61,1.19a.91.91,0,0,0,1,1A1.51,1.51,0,0,0,258.6,498Z"/><path class="cls-1" d="M266.1,495.39v4.16h-1v-4c0-.87-.36-1.12-.92-1.12a1.75,1.75,0,0,0-1.47,1v4.12h-1v-5.8h.87l.08.86a2.1,2.1,0,0,1,1.77-1A1.59,1.59,0,0,1,266.1,495.39Z"/><path class="cls-1" d="M275.86,496.64c0,1.82-.87,3-2.28,3a1.93,1.93,0,0,1-1.54-.77l-.1.64h-.89v-8.13l1-.12v3.18a2,2,0,0,1,1.64-.86C275,493.62,275.86,494.71,275.86,496.64Zm-1.09,0c0-1.65-.54-2.22-1.36-2.22a1.66,1.66,0,0,0-1.35.9v2.77a1.56,1.56,0,0,0,1.28.79C274.18,498.88,274.77,498.23,274.77,496.64Z"/><path class="cls-1" d="M281.94,497h-3.7c.1,1.35.73,1.86,1.56,1.86a2.43,2.43,0,0,0,1.51-.5l.44.6a3.16,3.16,0,0,1-2,.73c-1.62,0-2.57-1.13-2.57-3s.92-3.09,2.41-3.09,2.39,1.09,2.39,2.86C282,496.68,282,496.86,281.94,497Zm-1-.81c0-1.13-.45-1.76-1.36-1.76s-1.28.54-1.36,1.83H281Z"/><path class="cls-1" d="M290.86,499.55H290l-.08-.91a1.94,1.94,0,0,1-1.8,1,1.55,1.55,0,0,1-1.62-1.77v-4.16h1v4.05c0,.79.27,1.09.9,1.09a1.77,1.77,0,0,0,1.45-1v-4.14h1Z"/><path class="cls-1" d="M296.49,494.28l-.43.64a2.62,2.62,0,0,0-1.51-.5c-.66,0-1.06.3-1.06.76s.31.69,1.24.93c1.22.31,1.93.8,1.93,1.81,0,1.21-1.12,1.76-2.29,1.76a3.2,3.2,0,0,1-2.19-.76l.54-.62a2.58,2.58,0,0,0,1.63.57c.75,0,1.24-.33,1.24-.89s-.29-.79-1.41-1.08-1.75-.87-1.75-1.69.89-1.59,2.09-1.59A3.06,3.06,0,0,1,296.49,494.28Z"/><path class="cls-1" d="M302.44,497h-3.7c.1,1.35.73,1.86,1.57,1.86a2.42,2.42,0,0,0,1.5-.5l.44.6a3.16,3.16,0,0,1-2,.73c-1.62,0-2.56-1.13-2.56-3s.91-3.09,2.41-3.09,2.38,1.09,2.38,2.86C302.46,496.68,302.45,496.86,302.44,497Zm-1-.81c0-1.13-.45-1.76-1.36-1.76s-1.28.54-1.36,1.83h2.72Z"/><path class="cls-1" d="M308.62,491.42v8.13h-.89l-.1-.81a1.91,1.91,0,0,1-1.67.94c-1.41,0-2.19-1.2-2.19-3s.86-3.06,2.28-3.06a2.06,2.06,0,0,1,1.56.71v-3Zm-1,6.6v-2.84a1.66,1.66,0,0,0-1.34-.76c-.87,0-1.41.73-1.41,2.23s.48,2.23,1.32,2.23A1.65,1.65,0,0,0,307.61,498Z"/><path class="cls-1" d="M38.9,512.17l-.23.71a1.18,1.18,0,0,1-1.13-.87,2,2,0,0,1-1.73.87A1.69,1.69,0,0,1,34,511.13c0-1.24.94-1.91,2.56-1.91h.89v-.43c0-.84-.41-1.15-1.21-1.15a5.1,5.1,0,0,0-1.56.31l-.26-.74a5.8,5.8,0,0,1,2-.39c1.4,0,2,.71,2,1.92v2.65C38.42,511.9,38.61,512.07,38.9,512.17Zm-1.49-.95v-1.33h-.76c-1.07,0-1.61.39-1.61,1.19a.91.91,0,0,0,1,1A1.5,1.5,0,0,0,37.41,511.22Z"/><path class="cls-1" d="M44,507.48l-.43.64a2.66,2.66,0,0,0-1.5-.5c-.66,0-1.07.3-1.07.76s.31.69,1.24.93c1.22.31,1.93.8,1.93,1.81,0,1.21-1.11,1.76-2.29,1.76a3.22,3.22,0,0,1-2.19-.76l.54-.62a2.58,2.58,0,0,0,1.63.57c.75,0,1.24-.33,1.24-.89s-.29-.79-1.41-1.08S40,509.23,40,508.41s.89-1.59,2.09-1.59A3.06,3.06,0,0,1,44,507.48Z"/><path class="cls-1" d="M49.76,504.86a.71.71,0,1,1-.71-.69A.67.67,0,0,1,49.76,504.86Zm-.2,7.89h-1V507h1Z"/><path class="cls-1" d="M56.06,508.59v4.16h-1v-4c0-.87-.35-1.12-.91-1.12a1.77,1.77,0,0,0-1.48,1v4.12h-1V507h.87l.09.86a2.09,2.09,0,0,1,1.77-1A1.58,1.58,0,0,1,56.06,508.59Z"/><path class="cls-1" d="M62.91,509.84c0,1.76-.79,3-2.28,3a1.88,1.88,0,0,1-1.52-.66V515l-1,.12V507H59l.07.78a2.12,2.12,0,0,1,1.72-.91C62.3,506.82,62.91,508,62.91,509.84Zm-1.09,0c0-1.51-.44-2.22-1.31-2.22a1.77,1.77,0,0,0-1.4.9v2.83a1.5,1.5,0,0,0,1.28.7C61.31,512.05,61.82,511.36,61.82,509.84Z"/><path class="cls-1" d="M69,512.75h-.87l-.08-.91a1.94,1.94,0,0,1-1.8,1,1.55,1.55,0,0,1-1.62-1.77V507h1V511c0,.79.26,1.09.89,1.09a1.74,1.74,0,0,0,1.45-1V507h1Z"/><path class="cls-1" d="M74,512.48a2.16,2.16,0,0,1-1.3.4,1.45,1.45,0,0,1-1.56-1.65v-3.5h-1V507h1v-1.31l1-.12V507h1.38l-.11.78H72.11v3.45c0,.59.19.86.7.86a1.4,1.4,0,0,0,.77-.25Z"/><path class="cls-1" d="M78.55,507.48l-.43.64a2.7,2.7,0,0,0-1.51-.5c-.66,0-1.07.3-1.07.76s.31.69,1.25.93c1.22.31,1.92.8,1.92,1.81,0,1.21-1.11,1.76-2.29,1.76a3.2,3.2,0,0,1-2.18-.76l.53-.62a2.63,2.63,0,0,0,1.63.57c.76,0,1.25-.33,1.25-.89s-.29-.79-1.41-1.08-1.75-.87-1.75-1.69.89-1.59,2.09-1.59A3.08,3.08,0,0,1,78.55,507.48Z"/><path class="cls-1" d="M84.17,506.15v.8h1.41l-.11.78h-1.3v5h-1v-5h-1V507h1v-.79A1.61,1.61,0,0,1,85,504.5a3.18,3.18,0,0,1,1.39.29l-.32.74a2.6,2.6,0,0,0-1-.22C84.39,505.31,84.17,505.58,84.17,506.15Z"/><path class="cls-1" d="M91.38,509.84c0,1.8-.94,3-2.58,3s-2.59-1.19-2.59-3,1-3,2.6-3S91.38,508,91.38,509.84Zm-4.08,0c0,1.51.53,2.22,1.5,2.22s1.49-.71,1.49-2.23-.52-2.21-1.48-2.21S87.3,508.33,87.3,509.85Z"/><path class="cls-1" d="M96.15,506.88l-.19,1a2,2,0,0,0-.51-.06c-.72,0-1.14.51-1.38,1.63v3.31h-1V507h.87l.1,1.18a1.66,1.66,0,0,1,1.55-1.31A2.78,2.78,0,0,1,96.15,506.88Z"/><path class="cls-1" d="M103.14,512.48a2.16,2.16,0,0,1-1.3.4,1.45,1.45,0,0,1-1.56-1.65v-3.5h-1V507h1v-1.31l1-.12V507h1.38l-.11.78h-1.27v3.45c0,.59.19.86.7.86a1.4,1.4,0,0,0,.77-.25Z"/><path class="cls-1" d="M108.58,512.17l-.23.71a1.18,1.18,0,0,1-1.14-.87,2,2,0,0,1-1.72.87,1.69,1.69,0,0,1-1.85-1.75c0-1.24.93-1.91,2.55-1.91h.89v-.43c0-.84-.41-1.15-1.21-1.15a5.1,5.1,0,0,0-1.56.31l-.26-.74a5.81,5.81,0,0,1,2-.39c1.39,0,2,.71,2,1.92v2.65C108.09,511.9,108.28,512.07,108.58,512.17Zm-1.5-.95v-1.33h-.76c-1.07,0-1.61.39-1.61,1.19a.92.92,0,0,0,1,1A1.49,1.49,0,0,0,107.08,511.22Z"/><path class="cls-1" d="M110.12,511.6v-7l1-.12v7.08c0,.31.1.46.36.46a1.06,1.06,0,0,0,.37-.06l.27.7a1.72,1.72,0,0,1-.8.2A1.14,1.14,0,0,1,110.12,511.6Z"/><path class="cls-1" d="M113.34,511.6v-7l1-.12v7.08c0,.31.1.46.36.46a1.08,1.08,0,0,0,.38-.06l.26.7a1.69,1.69,0,0,1-.8.2A1.14,1.14,0,0,1,113.34,511.6Z"/><path class="cls-1" d="M118.94,512.78a3,3,0,0,1-2.7,2.31l-.11-.79a2,2,0,0,0,1.84-1.55h-.34l-1.95-5.8h1.08l1.55,5.06,1.52-5.06h1Z"/><path class="cls-1" d="M126.15,504.86a.71.71,0,1,1-.71-.69A.67.67,0,0,1,126.15,504.86Zm-.19,7.89h-1V507h1Z"/><path class="cls-1" d="M132.46,508.59v4.16h-1v-4c0-.87-.35-1.12-.91-1.12a1.75,1.75,0,0,0-1.47,1v4.12h-1V507h.87l.09.86a2.09,2.09,0,0,1,1.77-1A1.59,1.59,0,0,1,132.46,508.59Z"/><path class="cls-1" d="M139.17,507.21a5.51,5.51,0,0,1-1.7.18,1.54,1.54,0,0,1,1,1.46,2,2,0,0,1-2.22,2,2.23,2.23,0,0,1-.73-.11.69.69,0,0,0-.29.54c0,.26.17.47.76.47h.92c1.19,0,2,.69,2,1.61,0,1.12-.92,1.76-2.71,1.76s-2.49-.58-2.49-1.76h.91c0,.66.3,1,1.58,1s1.69-.32,1.69-.9-.44-.83-1.16-.83h-.92c-1,0-1.49-.52-1.49-1.1a1.26,1.26,0,0,1,.63-1,1.66,1.66,0,0,1-1-1.61,2.06,2.06,0,0,1,2.23-2,5,5,0,0,0,2.65-.52ZM135,508.84a1.18,1.18,0,0,0,1.22,1.31,1.15,1.15,0,0,0,1.22-1.32,1.13,1.13,0,0,0-1.24-1.29A1.16,1.16,0,0,0,135,508.84Z"/><path class="cls-1" d="M144.46,510.19h-3.7c.1,1.35.73,1.86,1.56,1.86a2.45,2.45,0,0,0,1.51-.5l.44.6a3.16,3.16,0,0,1-2,.73c-1.62,0-2.57-1.13-2.57-3s.92-3.09,2.41-3.09,2.39,1.09,2.39,2.86C144.48,509.88,144.47,510.06,144.46,510.19Zm-1-.81c0-1.13-.45-1.76-1.37-1.76s-1.27.54-1.35,1.83h2.72Z"/><path class="cls-1" d="M149.69,507.48l-.43.64a2.64,2.64,0,0,0-1.5-.5c-.66,0-1.07.3-1.07.76s.31.69,1.24.93c1.22.31,1.93.8,1.93,1.81,0,1.21-1.11,1.76-2.29,1.76a3.22,3.22,0,0,1-2.19-.76l.54-.62a2.58,2.58,0,0,0,1.63.57c.76,0,1.24-.33,1.24-.89s-.28-.79-1.41-1.08-1.75-.87-1.75-1.69.9-1.59,2.09-1.59A3.06,3.06,0,0,1,149.69,507.48Z"/><path class="cls-1" d="M154.21,512.48a2.15,2.15,0,0,1-1.29.4,1.46,1.46,0,0,1-1.57-1.65v-3.5h-1V507h1v-1.31l1-.12V507h1.37l-.11.78h-1.26v3.45c0,.59.18.86.69.86a1.4,1.4,0,0,0,.77-.25Z"/><path class="cls-1" d="M162.93,509.84c0,1.8-1,3-2.59,3s-2.58-1.19-2.58-3,.94-3,2.59-3S162.93,508,162.93,509.84Zm-4.09,0c0,1.51.53,2.22,1.5,2.22s1.5-.71,1.5-2.23-.53-2.21-1.49-2.21S158.84,508.33,158.84,509.85Z"/><path class="cls-1" d="M167.69,506.88l-.19,1a2,2,0,0,0-.5-.06c-.73,0-1.15.51-1.39,1.63v3.31h-1V507h.87l.1,1.18a1.64,1.64,0,0,1,1.55-1.31A2.76,2.76,0,0,1,167.69,506.88Z"/><path class="cls-1" d="M176.15,512.17l-.23.71a1.18,1.18,0,0,1-1.14-.87,2,2,0,0,1-1.72.87,1.69,1.69,0,0,1-1.85-1.75c0-1.24.93-1.91,2.55-1.91h.89v-.43c0-.84-.41-1.15-1.21-1.15a5.1,5.1,0,0,0-1.56.31l-.25-.74a5.72,5.72,0,0,1,2-.39c1.4,0,2,.71,2,1.92v2.65C175.66,511.9,175.85,512.07,176.15,512.17Zm-1.5-.95v-1.33h-.76c-1.06,0-1.6.39-1.6,1.19a.91.91,0,0,0,1,1A1.49,1.49,0,0,0,174.65,511.22Z"/><path class="cls-1" d="M181.29,507.48l-.43.64a2.7,2.7,0,0,0-1.51-.5c-.66,0-1.07.3-1.07.76s.31.69,1.25.93c1.22.31,1.92.8,1.92,1.81,0,1.21-1.11,1.76-2.29,1.76a3.22,3.22,0,0,1-2.19-.76l.54-.62a2.58,2.58,0,0,0,1.63.57c.76,0,1.24-.33,1.24-.89s-.28-.79-1.4-1.08-1.75-.87-1.75-1.69.89-1.59,2.09-1.59A3.08,3.08,0,0,1,181.29,507.48Z"/><path class="cls-1" d="M187,504.86a.71.71,0,1,1-.71-.69A.67.67,0,0,1,187,504.86Zm-.19,7.89h-1V507h1Z"/><path class="cls-1" d="M193.31,508.59v4.16h-1v-4c0-.87-.36-1.12-.92-1.12a1.75,1.75,0,0,0-1.47,1v4.12h-1V507h.87l.08.86a2.1,2.1,0,0,1,1.77-1A1.59,1.59,0,0,1,193.31,508.59Z"/><path class="cls-1" d="M200.15,509.84c0,1.76-.78,3-2.28,3a1.86,1.86,0,0,1-1.51-.66V515l-1,.12V507h.87l.08.78a2.12,2.12,0,0,1,1.72-.91C199.55,506.82,200.15,508,200.15,509.84Zm-1.09,0c0-1.51-.44-2.22-1.31-2.22a1.75,1.75,0,0,0-1.39.9v2.83a1.47,1.47,0,0,0,1.27.7C198.56,512.05,199.06,511.36,199.06,509.84Z"/><path class="cls-1" d="M206.19,512.75h-.87l-.08-.91a1.94,1.94,0,0,1-1.8,1,1.55,1.55,0,0,1-1.62-1.77V507h1V511c0,.79.27,1.09.9,1.09a1.77,1.77,0,0,0,1.45-1V507h1Z"/><path class="cls-1" d="M211.2,512.48a2.15,2.15,0,0,1-1.29.4,1.46,1.46,0,0,1-1.57-1.65v-3.5h-1V507h1v-1.31l1-.12V507h1.37l-.11.78h-1.26v3.45c0,.59.18.86.69.86a1.4,1.4,0,0,0,.77-.25Z"/><path class="cls-1" d="M215.77,504.07l-2.54,9.82-.87-.21,2.55-9.81Z"/><path class="cls-1" d="M221.73,509.84c0,1.8-.95,3-2.58,3s-2.59-1.19-2.59-3,.95-3,2.6-3S221.73,508,221.73,509.84Zm-4.08,0c0,1.51.53,2.22,1.5,2.22s1.49-.71,1.49-2.23-.53-2.21-1.48-2.21S217.65,508.33,217.65,509.85Z"/><path class="cls-1" d="M227.71,512.75h-.86l-.08-.91a2,2,0,0,1-1.81,1,1.55,1.55,0,0,1-1.61-1.77V507h1V511c0,.79.26,1.09.89,1.09a1.74,1.74,0,0,0,1.45-1V507h1Z"/><path class="cls-1" d="M232.73,512.48a2.16,2.16,0,0,1-1.3.4,1.45,1.45,0,0,1-1.56-1.65v-3.5h-1V507h1v-1.31l1-.12V507h1.38l-.11.78h-1.27v3.45c0,.59.19.86.69.86a1.4,1.4,0,0,0,.78-.25Z"/><path class="cls-1" d="M238.58,509.84c0,1.76-.78,3-2.28,3a1.86,1.86,0,0,1-1.51-.66V515l-1,.12V507h.87l.08.78a2.12,2.12,0,0,1,1.72-.91C238,506.82,238.58,508,238.58,509.84Zm-1.09,0c0-1.51-.44-2.22-1.31-2.22a1.75,1.75,0,0,0-1.39.9v2.83a1.47,1.47,0,0,0,1.27.7C237,512.05,237.49,511.36,237.49,509.84Z"/><path class="cls-1" d="M244.62,512.75h-.87l-.07-.91a2,2,0,0,1-1.81,1,1.55,1.55,0,0,1-1.62-1.77V507h1V511c0,.79.26,1.09.89,1.09a1.75,1.75,0,0,0,1.45-1V507h1Z"/><path class="cls-1" d="M249.64,512.48a2.2,2.2,0,0,1-1.3.4,1.45,1.45,0,0,1-1.56-1.65v-3.5h-1V507h1v-1.31l1-.12V507h1.37l-.11.78h-1.26v3.45c0,.59.19.86.69.86a1.37,1.37,0,0,0,.77-.25Z"/><path class="cls-1" d="M254.71,506.15v.8h1.4l-.11.78h-1.29v5h-1v-5h-1V507h1v-.79a1.61,1.61,0,0,1,1.81-1.66,3.21,3.21,0,0,1,1.39.29l-.32.74a2.6,2.6,0,0,0-1-.22C254.93,505.31,254.71,505.58,254.71,506.15Z"/><path class="cls-1" d="M261.92,509.84c0,1.8-.94,3-2.58,3s-2.59-1.19-2.59-3,.95-3,2.6-3S261.92,508,261.92,509.84Zm-4.08,0c0,1.51.53,2.22,1.5,2.22s1.49-.71,1.49-2.23-.52-2.21-1.48-2.21S257.84,508.33,257.84,509.85Z"/><path class="cls-1" d="M266.69,506.88l-.19,1a2,2,0,0,0-.51-.06c-.72,0-1.14.51-1.38,1.63v3.31h-1V507h.87l.1,1.18a1.66,1.66,0,0,1,1.55-1.31A2.78,2.78,0,0,1,266.69,506.88Z"/><path class="cls-1" d="M274.64,507.44l-.49.64a2,2,0,0,0-1.24-.43c-.91,0-1.48.72-1.48,2.23S272,512,272.91,512a2.13,2.13,0,0,0,1.27-.44l.46.66a2.73,2.73,0,0,1-1.77.64c-1.56,0-2.53-1.11-2.53-3s1-3.08,2.53-3.08A2.58,2.58,0,0,1,274.64,507.44Z"/><path class="cls-1" d="M280.4,512.17l-.23.71A1.18,1.18,0,0,1,279,512a2,2,0,0,1-1.73.87,1.69,1.69,0,0,1-1.85-1.75c0-1.24.94-1.91,2.56-1.91h.89v-.43c0-.84-.41-1.15-1.21-1.15a5.21,5.21,0,0,0-1.57.31l-.25-.74a5.8,5.8,0,0,1,2-.39c1.4,0,2,.71,2,1.92v2.65C279.92,511.9,280.11,512.07,280.4,512.17Zm-1.49-.95v-1.33h-.76c-1.07,0-1.61.39-1.61,1.19a.91.91,0,0,0,1,1A1.5,1.5,0,0,0,278.91,511.22Z"/><path class="cls-1" d="M289.39,508.59v4.16h-1v-4c0-.87-.38-1.12-.81-1.12-.63,0-1,.41-1.37,1v4.12h-1v-4c0-.87-.38-1.12-.82-1.12-.62,0-1,.41-1.36,1v4.12h-1V507h.87l.08.85a1.94,1.94,0,0,1,1.68-1,1.46,1.46,0,0,1,1.46,1,2,2,0,0,1,1.73-1A1.57,1.57,0,0,1,289.39,508.59Z"/><path class="cls-1" d="M295.78,510.19h-3.7c.1,1.35.73,1.86,1.57,1.86a2.42,2.42,0,0,0,1.5-.5l.44.6a3.16,3.16,0,0,1-2,.73c-1.62,0-2.56-1.13-2.56-3s.91-3.09,2.41-3.09,2.38,1.09,2.38,2.86C295.8,509.88,295.79,510.06,295.78,510.19Zm-1-.81c0-1.13-.45-1.76-1.36-1.76s-1.28.54-1.36,1.83h2.72Z"/><path class="cls-1" d="M300.57,506.88l-.19,1a2,2,0,0,0-.51-.06c-.72,0-1.14.51-1.38,1.63v3.31h-1V507h.87l.1,1.18a1.66,1.66,0,0,1,1.55-1.31A2.78,2.78,0,0,1,300.57,506.88Z"/><path class="cls-1" d="M305.89,512.17l-.23.71a1.17,1.17,0,0,1-1.13-.87,2,2,0,0,1-1.73.87,1.69,1.69,0,0,1-1.85-1.75c0-1.24.94-1.91,2.55-1.91h.89v-.43c0-.84-.4-1.15-1.21-1.15a5.15,5.15,0,0,0-1.56.31l-.25-.74a5.72,5.72,0,0,1,2-.39c1.4,0,2,.71,2,1.92v2.65C305.41,511.9,305.59,512.07,305.89,512.17Zm-1.5-.95v-1.33h-.76c-1.06,0-1.6.39-1.6,1.19a.91.91,0,0,0,1,1A1.49,1.49,0,0,0,304.39,511.22Z"/><path class="cls-1" d="M39.32,523c0,1.76-.78,3-2.28,3a1.86,1.86,0,0,1-1.51-.66v2.75l-1,.12v-8.14h.87l.08.78a2.12,2.12,0,0,1,1.72-.91C38.72,520,39.32,521.22,39.32,523Zm-1.09,0c0-1.5-.44-2.22-1.31-2.22a1.75,1.75,0,0,0-1.39.9v2.83a1.48,1.48,0,0,0,1.27.7C37.73,525.25,38.23,524.56,38.23,523Z"/><path class="cls-1" d="M44.14,520.08l-.19,1a1.9,1.9,0,0,0-.5-.06c-.73,0-1.15.51-1.39,1.63V526h-1v-5.8h.87l.1,1.18A1.64,1.64,0,0,1,43.57,520,2.69,2.69,0,0,1,44.14,520.08Z"/><path class="cls-1" d="M49.54,523.39h-3.7c.1,1.35.73,1.86,1.57,1.86a2.42,2.42,0,0,0,1.5-.5l.44.6a3.16,3.16,0,0,1-2,.73c-1.62,0-2.56-1.13-2.56-3s.91-3.09,2.41-3.09,2.38,1.09,2.38,2.86C49.56,523.08,49.55,523.26,49.54,523.39Zm-1-.81c0-1.13-.45-1.76-1.36-1.76s-1.28.54-1.36,1.83h2.72Z"/><path class="cls-1" d="M53.41,526H52.19l-2-5.8h1.1L52.81,525l1.51-4.89h1.06Z"/><path class="cls-1" d="M57.75,518.06a.68.68,0,0,1-.72.68.69.69,0,1,1,0-1.37A.68.68,0,0,1,57.75,518.06Zm-.2,7.89h-1v-5.8h1Z"/><path class="cls-1" d="M64,523.39H60.3c.1,1.35.73,1.86,1.56,1.86a2.47,2.47,0,0,0,1.51-.5l.44.6a3.17,3.17,0,0,1-2,.73c-1.61,0-2.56-1.13-2.56-3s.91-3.09,2.41-3.09S64,521.11,64,522.88A3.58,3.58,0,0,1,64,523.39Zm-1-.81c0-1.13-.45-1.76-1.37-1.76-.77,0-1.27.54-1.35,1.83H63Z"/><path class="cls-1" d="M71,526H69.62l-1-4.89-1,4.89H66.22l-1.36-5.8h1l1,5.09,1.15-5.09H69.2l1.09,5.09,1-5.09h1Z"/><path class="cls-1" d="M74.39,525.31a.77.77,0,1,1-.77-.76A.76.76,0,0,1,74.39,525.31Z"/><path class="cls-1" d="M83.33,519.26h-2.1V526h-1v-6.69H78v-.89h5.41Z"/><path class="cls-1" d="M89,521.79V526H88v-4c0-.87-.38-1.12-.93-1.12a1.78,1.78,0,0,0-1.46,1V526h-1v-8.12l1-.11V521a2.08,2.08,0,0,1,1.71-.93A1.6,1.6,0,0,1,89,521.79Z"/><path class="cls-1" d="M92.25,518.06a.71.71,0,1,1-.71-.69A.67.67,0,0,1,92.25,518.06ZM92.06,526H91v-5.8h1Z"/><path class="cls-1" d="M97.69,520.68l-.43.64a2.7,2.7,0,0,0-1.51-.5c-.66,0-1.07.3-1.07.76s.31.69,1.25.93c1.22.31,1.92.8,1.92,1.81,0,1.21-1.11,1.76-2.29,1.76a3.22,3.22,0,0,1-2.19-.76l.54-.62a2.6,2.6,0,0,0,1.63.57c.76,0,1.24-.33,1.24-.89s-.28-.79-1.4-1.08-1.75-.87-1.75-1.69.89-1.59,2.09-1.59A3.08,3.08,0,0,1,97.69,520.68Z"/><path class="cls-1" d="M106.08,520.64l-.48.64a2,2,0,0,0-1.25-.43c-.91,0-1.48.72-1.48,2.23s.57,2.14,1.48,2.14a2.13,2.13,0,0,0,1.27-.44l.46.66a2.73,2.73,0,0,1-1.77.64c-1.56,0-2.53-1.11-2.53-3s1-3.08,2.53-3.08A2.58,2.58,0,0,1,106.08,520.64Z"/><path class="cls-1" d="M111.84,525.38l-.23.7a1.18,1.18,0,0,1-1.13-.87,2,2,0,0,1-1.73.87,1.69,1.69,0,0,1-1.85-1.75c0-1.24.94-1.91,2.56-1.91h.89V522c0-.84-.41-1.15-1.21-1.15a5.21,5.21,0,0,0-1.57.31l-.25-.74a5.8,5.8,0,0,1,2-.39c1.4,0,2,.71,2,1.92v2.65C111.36,525.1,111.55,525.27,111.84,525.38Zm-1.49-1v-1.33h-.76c-1.07,0-1.61.39-1.61,1.19a.91.91,0,0,0,1,1A1.5,1.5,0,0,0,110.35,524.42Z"/><path class="cls-1" d="M118.25,523c0,1.82-.87,3-2.28,3a1.93,1.93,0,0,1-1.54-.77l-.1.64h-.89v-8.13l1-.12v3.18a2,2,0,0,1,1.64-.86C117.4,520,118.25,521.11,118.25,523Zm-1.09,0c0-1.65-.54-2.22-1.36-2.22a1.66,1.66,0,0,0-1.35.9v2.78a1.57,1.57,0,0,0,1.28.78C116.57,525.28,117.16,524.63,117.16,523Z"/><path class="cls-1" d="M119.92,524.8v-7l1-.12v7.08c0,.31.1.46.36.46a1.08,1.08,0,0,0,.38-.06l.26.7a1.72,1.72,0,0,1-.8.2A1.14,1.14,0,0,1,119.92,524.8Z"/><path class="cls-1" d="M127.44,523.39h-3.7c.1,1.35.73,1.86,1.57,1.86a2.42,2.42,0,0,0,1.5-.5l.44.6a3.16,3.16,0,0,1-2,.73c-1.62,0-2.56-1.13-2.56-3s.91-3.09,2.41-3.09,2.38,1.09,2.38,2.86C127.46,523.08,127.45,523.26,127.44,523.39Zm-1-.81c0-1.13-.45-1.76-1.36-1.76s-1.28.54-1.36,1.83h2.72Z"/><path class="cls-1" d="M136.46,521.79V526h-1v-4c0-.87-.38-1.12-.92-1.12a1.79,1.79,0,0,0-1.47,1V526h-1v-8.12l1-.11V521a2.09,2.09,0,0,1,1.72-.93A1.6,1.6,0,0,1,136.46,521.79Z"/><path class="cls-1" d="M142.89,525.38l-.24.7a1.18,1.18,0,0,1-1.13-.87,2,2,0,0,1-1.73.87,1.68,1.68,0,0,1-1.84-1.75c0-1.24.93-1.91,2.55-1.91h.89V522c0-.84-.41-1.15-1.21-1.15a5.1,5.1,0,0,0-1.56.31l-.26-.74a5.81,5.81,0,0,1,2-.39c1.39,0,2,.71,2,1.92v2.65C142.4,525.1,142.59,525.27,142.89,525.38Zm-1.5-1v-1.33h-.76c-1.07,0-1.61.39-1.61,1.19a.91.91,0,0,0,1,1A1.49,1.49,0,0,0,141.39,524.42Z"/><path class="cls-1" d="M148,520.68l-.43.64a2.64,2.64,0,0,0-1.5-.5c-.66,0-1.07.3-1.07.76s.31.69,1.24.93c1.22.31,1.93.8,1.93,1.81,0,1.21-1.11,1.76-2.29,1.76a3.22,3.22,0,0,1-2.19-.76l.54-.62a2.58,2.58,0,0,0,1.63.57c.76,0,1.24-.33,1.24-.89s-.29-.79-1.41-1.08-1.75-.87-1.75-1.69.89-1.59,2.09-1.59A3.06,3.06,0,0,1,148,520.68Z"/><path class="cls-1" d="M155.46,525.68a2.2,2.2,0,0,1-1.3.4,1.45,1.45,0,0,1-1.56-1.65v-3.5h-1v-.78h1v-1.31l1-.12v1.43H155l-.11.78h-1.27v3.45c0,.59.19.86.69.86a1.35,1.35,0,0,0,.77-.25Z"/><path class="cls-1" d="M161.15,523c0,1.8-1,3-2.59,3s-2.58-1.19-2.58-3,.94-3,2.59-3S161.15,521.21,161.15,523Zm-4.09,0c0,1.51.53,2.22,1.5,2.22s1.5-.71,1.5-2.23-.53-2.21-1.49-2.21S157.06,521.54,157.06,523.05Z"/><path class="cls-1" d="M170.54,523c0,1.82-.87,3-2.28,3a1.94,1.94,0,0,1-1.54-.77l-.1.64h-.89v-8.13l1-.12v3.18a2,2,0,0,1,1.64-.86C169.69,520,170.54,521.11,170.54,523Zm-1.09,0c0-1.65-.54-2.22-1.35-2.22a1.66,1.66,0,0,0-1.36.9v2.78a1.57,1.57,0,0,0,1.28.78C168.87,525.28,169.45,524.63,169.45,523Z"/><path class="cls-1" d="M176.62,523.39h-3.69c.1,1.35.72,1.86,1.56,1.86a2.47,2.47,0,0,0,1.51-.5l.44.6a3.21,3.21,0,0,1-2,.73c-1.62,0-2.56-1.13-2.56-3s.91-3.09,2.41-3.09,2.39,1.09,2.39,2.86C176.65,523.08,176.63,523.26,176.62,523.39Zm-1-.81c0-1.13-.45-1.76-1.36-1.76s-1.28.54-1.35,1.83h2.71Z"/><path class="cls-1" d="M186,523c0,1.76-.78,3-2.28,3a1.88,1.88,0,0,1-1.52-.66v2.75l-1,.12v-8.14h.87l.08.78a2.11,2.11,0,0,1,1.71-.91C185.43,520,186,521.22,186,523ZM185,523c0-1.5-.44-2.22-1.31-2.22a1.78,1.78,0,0,0-1.4.9v2.83a1.5,1.5,0,0,0,1.28.7C184.44,525.25,185,524.56,185,523Z"/><path class="cls-1" d="M187.71,524.8v-7l1-.12v7.08c0,.31.1.46.37.46a1.06,1.06,0,0,0,.37-.06l.26.7a1.69,1.69,0,0,1-.8.2A1.14,1.14,0,0,1,187.71,524.8Z"/><path class="cls-1" d="M195.3,526h-.87l-.07-.91a2,2,0,0,1-1.81,1,1.55,1.55,0,0,1-1.62-1.77v-4.16h1v4.05c0,.79.26,1.09.89,1.09a1.75,1.75,0,0,0,1.45-1v-4.14h1Z"/><path class="cls-1" d="M202.07,520.41a5.51,5.51,0,0,1-1.7.18,1.53,1.53,0,0,1,1,1.46,2,2,0,0,1-2.21,2,2.23,2.23,0,0,1-.73-.11.69.69,0,0,0-.29.54c0,.26.16.47.76.47h.92c1.19,0,2,.69,2,1.61,0,1.12-.92,1.76-2.71,1.76s-2.49-.58-2.49-1.76h.91c0,.66.3,1,1.58,1s1.69-.32,1.69-.9-.44-.83-1.17-.83h-.91c-1,0-1.5-.52-1.5-1.1a1.27,1.27,0,0,1,.64-1,1.66,1.66,0,0,1-1-1.61,2.07,2.07,0,0,1,2.24-2,5,5,0,0,0,2.65-.52ZM197.92,522a1.18,1.18,0,0,0,1.22,1.31,1.15,1.15,0,0,0,1.22-1.32,1.13,1.13,0,0,0-1.24-1.29A1.16,1.16,0,0,0,197.92,522Z"/><path class="cls-1" d="M207.78,520.41a5.41,5.41,0,0,1-1.69.18,1.53,1.53,0,0,1,1,1.46,2,2,0,0,1-2.21,2,2.23,2.23,0,0,1-.73-.11.69.69,0,0,0-.29.54c0,.26.16.47.76.47h.92c1.19,0,2,.69,2,1.61,0,1.12-.92,1.76-2.71,1.76s-2.49-.58-2.49-1.76h.91c0,.66.3,1,1.58,1s1.69-.32,1.69-.9-.44-.83-1.17-.83h-.91c-1,0-1.5-.52-1.5-1.1a1.25,1.25,0,0,1,.64-1,1.66,1.66,0,0,1-1-1.61,2.07,2.07,0,0,1,2.24-2,5,5,0,0,0,2.65-.52ZM203.64,522a1.18,1.18,0,0,0,1.22,1.31,1.15,1.15,0,0,0,1.22-1.32,1.13,1.13,0,0,0-1.24-1.29A1.16,1.16,0,0,0,203.64,522Z"/><path class="cls-1" d="M213.07,523.39h-3.69c.1,1.35.73,1.86,1.56,1.86a2.47,2.47,0,0,0,1.51-.5l.44.6a3.17,3.17,0,0,1-2,.73c-1.61,0-2.56-1.13-2.56-3s.91-3.09,2.41-3.09,2.39,1.09,2.39,2.86A3.58,3.58,0,0,1,213.07,523.39Zm-1-.81c0-1.13-.45-1.76-1.37-1.76-.77,0-1.27.54-1.35,1.83h2.72Z"/><path class="cls-1" d="M219.26,517.82V526h-.89l-.1-.81a1.94,1.94,0,0,1-1.68.94c-1.4,0-2.19-1.2-2.19-3s.86-3.06,2.28-3.06a2.09,2.09,0,0,1,1.56.71v-3Zm-1,6.6v-2.84a1.65,1.65,0,0,0-1.34-.76c-.87,0-1.41.73-1.41,2.23s.49,2.23,1.33,2.23A1.65,1.65,0,0,0,218.24,524.42Z"/><path class="cls-1" d="M225.47,518.06a.71.71,0,1,1-.71-.69A.67.67,0,0,1,225.47,518.06Zm-.2,7.89h-1v-5.8h1Z"/><path class="cls-1" d="M231.78,521.79V526h-1v-4c0-.87-.35-1.12-.91-1.12a1.75,1.75,0,0,0-1.47,1V526h-1v-5.8h.87l.09.86a2.09,2.09,0,0,1,1.77-1A1.59,1.59,0,0,1,231.78,521.79Z"/><path class="cls-1" d="M236.74,525.68a2.2,2.2,0,0,1-1.3.4,1.45,1.45,0,0,1-1.56-1.65v-3.5h-1v-.78h1v-1.31l1-.12v1.43h1.37l-.11.78h-1.26v3.45c0,.59.18.86.69.86a1.37,1.37,0,0,0,.77-.25Z"/><path class="cls-1" d="M242.42,523c0,1.8-.94,3-2.58,3s-2.59-1.19-2.59-3,.95-3,2.6-3S242.42,521.21,242.42,523Zm-4.08,0c0,1.51.53,2.22,1.5,2.22s1.49-.71,1.49-2.23-.52-2.21-1.48-2.21S238.34,521.54,238.34,523.05Z"/><path class="cls-1" d="M249.29,522.73h-1.18V526h-1.05v-7.58h2c1.89,0,2.88.72,2.88,2.14a2,2,0,0,1-1.64,2l2,3.4H251.1Zm-.13-.8c1.06,0,1.67-.39,1.67-1.42s-.54-1.33-1.79-1.33h-.93v2.75Z"/><path class="cls-1" d="M258.36,519l-.57.67a2.23,2.23,0,0,0-1.46-.56c-1.15,0-2.1.77-2.1,3.06s.91,3.05,2.09,3.05a2.53,2.53,0,0,0,1.6-.64l.53.67a3,3,0,0,1-2.17.85c-1.83,0-3.17-1.38-3.17-3.93s1.43-3.91,3.15-3.91A3,3,0,0,1,258.36,519Z"/><path class="cls-1" d="M264.71,520.71c0,1.74-1.27,2.45-2.94,2.45h-.95V526h-1.05v-7.58h2C263.59,518.37,264.71,519.12,264.71,520.71Zm-1.11,0c0-1.13-.73-1.54-1.85-1.54h-.93v3.16h.91C262.85,522.34,263.6,522,263.6,520.72Z"/><path class="cls-1" d="M273.83,523c0,1.76-.78,3-2.28,3a1.88,1.88,0,0,1-1.52-.66v2.75l-1,.12v-8.14h.87l.08.78a2.11,2.11,0,0,1,1.71-.91C273.22,520,273.83,521.22,273.83,523Zm-1.09,0c0-1.5-.44-2.22-1.31-2.22a1.77,1.77,0,0,0-1.4.9v2.83a1.5,1.5,0,0,0,1.28.7C272.23,525.25,272.74,524.56,272.74,523Z"/><path class="cls-1" d="M280.31,523c0,1.8-.95,3-2.59,3s-2.58-1.19-2.58-3,.94-3,2.59-3S280.31,521.21,280.31,523Zm-4.08,0c0,1.51.52,2.22,1.49,2.22s1.5-.71,1.5-2.23-.53-2.21-1.49-2.21S276.23,521.54,276.23,523.05Z"/><path class="cls-1" d="M285.07,520.08l-.19,1a1.9,1.9,0,0,0-.5-.06c-.73,0-1.15.51-1.39,1.63V526h-1v-5.8h.87l.1,1.18A1.64,1.64,0,0,1,284.5,520,2.69,2.69,0,0,1,285.07,520.08Z"/><path class="cls-1" d="M289.26,525.68a2.16,2.16,0,0,1-1.3.4,1.45,1.45,0,0,1-1.56-1.65v-3.5h-1v-.78h1v-1.31l1-.12v1.43h1.38l-.11.78h-1.27v3.45c0,.59.19.86.7.86a1.4,1.4,0,0,0,.77-.25Z"/><path class="cls-1" d="M295.73,526h-1v-6.28l-1.72,1-.44-.71,2.28-1.41h.89Z"/><path class="cls-1" d="M38.9,538.57l-.23.71a1.18,1.18,0,0,1-1.13-.87,2,2,0,0,1-1.73.87A1.69,1.69,0,0,1,34,537.53c0-1.24.94-1.91,2.56-1.91h.89v-.43c0-.84-.41-1.15-1.21-1.15a5.1,5.1,0,0,0-1.56.31l-.26-.74a5.8,5.8,0,0,1,2-.39c1.4,0,2,.71,2,1.92v2.65C38.42,538.3,38.61,538.46,38.9,538.57Zm-1.49-1v-1.33h-.76c-1.07,0-1.61.39-1.61,1.18a.91.91,0,0,0,1,1A1.5,1.5,0,0,0,37.41,537.62Z"/><path class="cls-1" d="M44.91,535v4.16h-1v-4c0-.87-.35-1.12-.91-1.12a1.77,1.77,0,0,0-1.48,1v4.12h-1v-5.8h.87l.09.86a2.08,2.08,0,0,1,1.77-1A1.59,1.59,0,0,1,44.91,535Z"/><path class="cls-1" d="M51.43,531v8.13h-.89l-.1-.81a1.91,1.91,0,0,1-1.67.94c-1.41,0-2.19-1.2-2.19-3s.86-3.06,2.28-3.06a2.06,2.06,0,0,1,1.56.71v-3Zm-1,6.6v-2.84a1.66,1.66,0,0,0-1.34-.76c-.87,0-1.41.73-1.41,2.23s.48,2.23,1.32,2.23A1.65,1.65,0,0,0,50.42,537.62Z"/><path class="cls-1" d="M61.25,536.24c0,1.76-.79,3-2.28,3a1.87,1.87,0,0,1-1.52-.66v2.75l-1,.12v-8.14h.87l.07.78a2.12,2.12,0,0,1,1.72-.91C60.64,533.22,61.25,534.42,61.25,536.24Zm-1.09,0c0-1.51-.44-2.22-1.31-2.22a1.77,1.77,0,0,0-1.4.9v2.83a1.5,1.5,0,0,0,1.28.7C59.65,538.45,60.16,537.76,60.16,536.24Z"/><path class="cls-1" d="M67.73,536.24c0,1.8-1,3-2.59,3s-2.59-1.19-2.59-3,1-3,2.6-3S67.73,534.41,67.73,536.24Zm-4.09,0c0,1.51.53,2.21,1.5,2.21s1.5-.7,1.5-2.22S66.11,534,65.15,534,63.64,534.73,63.64,536.25Z"/><path class="cls-1" d="M72.49,533.28l-.19,1a2,2,0,0,0-.51-.06c-.72,0-1.14.51-1.38,1.62v3.32h-1v-5.8h.87l.09,1.18a1.66,1.66,0,0,1,1.56-1.31A2.76,2.76,0,0,1,72.49,533.28Z"/><path class="cls-1" d="M76.68,538.88a2.18,2.18,0,0,1-1.3.4,1.45,1.45,0,0,1-1.56-1.65v-3.5h-1v-.78h1V532l1-.12v1.43h1.38l-.11.78H74.83v3.45c0,.59.19.86.69.86a1.35,1.35,0,0,0,.77-.25Z"/><path class="cls-1" d="M84.31,533.69c0,1.37-.88,2.35-3.13,4.61h3.31l-.12.85H80v-.81c2.6-2.7,3.24-3.41,3.24-4.61a1.14,1.14,0,0,0-1.21-1.22,1.79,1.79,0,0,0-1.5.81l-.68-.53a2.71,2.71,0,0,1,2.23-1.11A2,2,0,0,1,84.31,533.69Z"/><path class="cls-1" d="M94.3,539.15H92.93l-1-4.89-1,4.89H89.53l-1.36-5.8h1l1,5.09,1.15-5.09h1.13l1.09,5.09,1.05-5.09h1Z"/><path class="cls-1" d="M98.1,531.26a.68.68,0,0,1-.72.68.69.69,0,1,1,0-1.37A.68.68,0,0,1,98.1,531.26Zm-.2,7.89h-1v-5.8h1Z"/><path class="cls-1" d="M99.93,538v-7l1-.12V538c0,.31.1.46.37.46a1.06,1.06,0,0,0,.37-.06l.27.7a1.73,1.73,0,0,1-.81.2A1.14,1.14,0,0,1,99.93,538Z"/><path class="cls-1" d="M103.15,538v-7l1-.12V538c0,.31.1.46.36.46a1.06,1.06,0,0,0,.37-.06l.27.7a1.73,1.73,0,0,1-.81.2A1.14,1.14,0,0,1,103.15,538Z"/><path class="cls-1" d="M114.15,536.24c0,1.82-.86,3-2.27,3a1.93,1.93,0,0,1-1.54-.77l-.1.64h-.89V531l1-.12v3.18a2,2,0,0,1,1.64-.86C113.31,533.22,114.15,534.31,114.15,536.24Zm-1.08,0c0-1.65-.54-2.22-1.36-2.22a1.64,1.64,0,0,0-1.35.9v2.77a1.56,1.56,0,0,0,1.28.79C112.48,538.48,113.07,537.83,113.07,536.24Z"/><path class="cls-1" d="M120.24,536.59h-3.7c.1,1.35.73,1.86,1.56,1.86a2.43,2.43,0,0,0,1.51-.5l.44.6a3.16,3.16,0,0,1-2,.73c-1.62,0-2.57-1.13-2.57-3s.92-3.09,2.41-3.09,2.39,1.09,2.39,2.86C120.26,536.28,120.25,536.46,120.24,536.59Zm-1-.81c0-1.13-.45-1.76-1.36-1.76s-1.28.54-1.36,1.83h2.72Z"/><path class="cls-1" d="M129.34,531v8.13h-.9l-.09-.81a1.94,1.94,0,0,1-1.68.94c-1.41,0-2.19-1.2-2.19-3s.86-3.06,2.28-3.06a2.06,2.06,0,0,1,1.56.71v-3Zm-1,6.6v-2.84A1.66,1.66,0,0,0,127,534c-.87,0-1.41.73-1.41,2.23s.49,2.23,1.32,2.23A1.65,1.65,0,0,0,128.32,537.62Z"/><path class="cls-1" d="M132.63,531.26a.71.71,0,1,1-.71-.69A.67.67,0,0,1,132.63,531.26Zm-.19,7.89h-1v-5.8h1Z"/><path class="cls-1" d="M138.07,533.88l-.43.63a2.68,2.68,0,0,0-1.51-.49c-.66,0-1.06.3-1.06.76s.3.69,1.24.93c1.22.31,1.92.8,1.92,1.81,0,1.21-1.11,1.76-2.28,1.76a3.2,3.2,0,0,1-2.19-.76l.54-.62a2.63,2.63,0,0,0,1.62.56c.76,0,1.25-.33,1.25-.88s-.29-.79-1.41-1.08-1.75-.87-1.75-1.69.89-1.59,2.09-1.59A3.08,3.08,0,0,1,138.07,533.88Z"/><path class="cls-1" d="M144.05,538.57l-.23.71a1.17,1.17,0,0,1-1.13-.87,2,2,0,0,1-1.73.87,1.69,1.69,0,0,1-1.85-1.75c0-1.24.94-1.91,2.56-1.91h.89v-.43c0-.84-.41-1.15-1.21-1.15a5.21,5.21,0,0,0-1.57.31l-.25-.74a5.76,5.76,0,0,1,2-.39c1.4,0,2,.71,2,1.92v2.65C143.57,538.3,143.76,538.46,144.05,538.57Zm-1.49-1v-1.33h-.76c-1.07,0-1.61.39-1.61,1.18a.91.91,0,0,0,1,1A1.5,1.5,0,0,0,142.56,537.62Z"/><path class="cls-1" d="M150.45,536.24c0,1.82-.86,3-2.27,3a1.93,1.93,0,0,1-1.54-.77l-.1.64h-.89V531l1-.12v3.18a2,2,0,0,1,1.64-.86C149.61,533.22,150.45,534.31,150.45,536.24Zm-1.08,0c0-1.65-.54-2.22-1.36-2.22a1.64,1.64,0,0,0-1.35.9v2.77a1.56,1.56,0,0,0,1.28.79C148.78,538.48,149.37,537.83,149.37,536.24Z"/><path class="cls-1" d="M152.13,538v-7l1-.12V538c0,.31.1.46.36.46a1.08,1.08,0,0,0,.38-.06l.26.7a1.72,1.72,0,0,1-.8.2A1.14,1.14,0,0,1,152.13,538Z"/><path class="cls-1" d="M159.65,536.59H156c.1,1.35.73,1.86,1.57,1.86a2.42,2.42,0,0,0,1.5-.5l.44.6a3.16,3.16,0,0,1-2,.73c-1.62,0-2.56-1.13-2.56-3s.91-3.09,2.4-3.09,2.39,1.09,2.39,2.86C159.67,536.28,159.66,536.46,159.65,536.59Zm-1-.81c0-1.13-.45-1.76-1.36-1.76s-1.28.54-1.36,1.83h2.72Z"/><path class="cls-1" d="M165.83,531v8.13h-.89l-.1-.81a1.91,1.91,0,0,1-1.67.94c-1.41,0-2.19-1.2-2.19-3s.86-3.06,2.28-3.06a2.06,2.06,0,0,1,1.56.71v-3Zm-1,6.6v-2.84a1.66,1.66,0,0,0-1.34-.76c-.87,0-1.41.73-1.41,2.23s.48,2.23,1.32,2.23A1.65,1.65,0,0,0,164.82,537.62Z"/><path class="cls-1" d="M176.14,539.15h-1.38l-1-4.89-1,4.89h-1.35l-1.35-5.8h1l1,5.09,1.14-5.09h1.14l1.09,5.09,1.05-5.09h1Z"/><path class="cls-1" d="M183.14,535v4.16h-1v-4c0-.87-.37-1.12-.92-1.12a1.77,1.77,0,0,0-1.46,1v4.13h-1V531l1-.11v3.23a2.07,2.07,0,0,1,1.71-.93A1.6,1.6,0,0,1,183.14,535Z"/><path class="cls-1" d="M189.53,536.59h-3.7c.1,1.35.73,1.86,1.56,1.86a2.47,2.47,0,0,0,1.51-.5l.44.6a3.16,3.16,0,0,1-2,.73c-1.62,0-2.57-1.13-2.57-3s.91-3.09,2.41-3.09,2.39,1.09,2.39,2.86C189.55,536.28,189.54,536.46,189.53,536.59Zm-1-.81c0-1.13-.45-1.76-1.37-1.76s-1.27.54-1.35,1.83h2.72Z"/><path class="cls-1" d="M195.63,535v4.16h-1v-4c0-.87-.35-1.12-.91-1.12a1.77,1.77,0,0,0-1.48,1v4.12h-1v-5.8h.87l.09.86a2.08,2.08,0,0,1,1.77-1A1.58,1.58,0,0,1,195.63,535Z"/><path class="cls-1" d="M204.89,539.15H204l-.07-.91a2,2,0,0,1-1.81,1,1.55,1.55,0,0,1-1.61-1.77v-4.16h1v4c0,.79.26,1.09.89,1.09a1.74,1.74,0,0,0,1.45-1v-4.14h1Z"/><path class="cls-1" d="M210.53,533.88l-.43.63a2.68,2.68,0,0,0-1.51-.49c-.66,0-1.07.3-1.07.76s.31.69,1.24.93c1.23.31,1.93.8,1.93,1.81,0,1.21-1.11,1.76-2.29,1.76a3.22,3.22,0,0,1-2.19-.76l.54-.62a2.63,2.63,0,0,0,1.63.56c.76,0,1.24-.33,1.24-.88s-.28-.79-1.41-1.08-1.74-.87-1.74-1.69.89-1.59,2.09-1.59A3.1,3.1,0,0,1,210.53,533.88Z"/><path class="cls-1" d="M216.48,536.59h-3.7c.1,1.35.73,1.86,1.56,1.86a2.47,2.47,0,0,0,1.51-.5l.44.6a3.17,3.17,0,0,1-2,.73c-1.61,0-2.56-1.13-2.56-3s.91-3.09,2.41-3.09,2.39,1.09,2.39,2.86C216.5,536.28,216.49,536.46,216.48,536.59Zm-1-.81c0-1.13-.45-1.76-1.37-1.76-.77,0-1.27.54-1.35,1.83h2.72Z"/><path class="cls-1" d="M222.66,531v8.13h-.89l-.1-.81a1.94,1.94,0,0,1-1.68.94c-1.4,0-2.18-1.2-2.18-3s.85-3.06,2.27-3.06a2.08,2.08,0,0,1,1.57.71v-3Zm-1,6.6v-2.84a1.68,1.68,0,0,0-1.35-.76c-.87,0-1.4.73-1.4,2.23s.48,2.23,1.32,2.23A1.68,1.68,0,0,0,221.65,537.62Z"/><path class="cls-1" d="M225.78,538.51a.77.77,0,1,1-.77-.76A.76.76,0,0,1,225.78,538.51Z"/><path class="cls-1" d="M331.82,243.27h-2.1V250h-1v-6.69h-2.16v-.89h5.42Z"/><path class="cls-1" d="M337.5,245.8V250h-1v-4c0-.87-.38-1.12-.93-1.12a1.79,1.79,0,0,0-1.46,1V250h-1v-8.12l1-.11V245a2.09,2.09,0,0,1,1.72-.93A1.6,1.6,0,0,1,337.5,245.8Z"/><path class="cls-1" d="M343.89,247.4H340.2c.09,1.35.72,1.86,1.56,1.86a2.42,2.42,0,0,0,1.5-.5l.44.6a3.16,3.16,0,0,1-2,.73c-1.62,0-2.56-1.13-2.56-3S340,244,341.53,244s2.38,1.09,2.38,2.86C343.91,247.09,343.9,247.27,343.89,247.4Zm-1-.81c0-1.13-.45-1.76-1.36-1.76s-1.28.54-1.35,1.83h2.71Z"/><path class="cls-1" d="M352.38,244.65l-.48.64a2,2,0,0,0-1.24-.43c-.92,0-1.49.72-1.49,2.23s.57,2.14,1.49,2.14a2.12,2.12,0,0,0,1.26-.44l.46.66a2.71,2.71,0,0,1-1.77.64c-1.56,0-2.53-1.11-2.53-3s1-3.08,2.53-3.08A2.58,2.58,0,0,1,352.38,244.65Z"/><path class="cls-1" d="M358.15,249.38l-.23.71a1.18,1.18,0,0,1-1.14-.87,2,2,0,0,1-1.72.87,1.69,1.69,0,0,1-1.85-1.75c0-1.24.93-1.91,2.55-1.91h.89V246c0-.84-.41-1.15-1.21-1.15a5.1,5.1,0,0,0-1.56.31l-.25-.74a5.72,5.72,0,0,1,2-.39c1.4,0,2,.71,2,1.92v2.65C357.66,249.11,357.85,249.28,358.15,249.38Zm-1.5-.95V247.1h-.76c-1.07,0-1.6.39-1.6,1.19a.91.91,0,0,0,1,1A1.49,1.49,0,0,0,356.65,248.43Z"/><path class="cls-1" d="M364.55,247.05c0,1.82-.87,3-2.28,3a1.94,1.94,0,0,1-1.54-.77l-.1.64h-.89v-8.13l1-.12v3.18a2,2,0,0,1,1.64-.86C363.7,244,364.55,245.12,364.55,247.05Zm-1.09,0c0-1.65-.54-2.22-1.35-2.22a1.66,1.66,0,0,0-1.36.9v2.77a1.56,1.56,0,0,0,1.28.79C362.88,249.29,363.46,248.64,363.46,247.05Z"/><path class="cls-1" d="M366.22,248.81v-7l1-.12v7.08c0,.31.1.46.37.46a1.06,1.06,0,0,0,.37-.06l.27.7a1.76,1.76,0,0,1-.81.2A1.14,1.14,0,0,1,366.22,248.81Z"/><path class="cls-1" d="M373.74,247.4h-3.69c.1,1.35.73,1.86,1.56,1.86a2.47,2.47,0,0,0,1.51-.5l.44.6a3.17,3.17,0,0,1-2,.73c-1.61,0-2.56-1.13-2.56-3s.91-3.09,2.41-3.09,2.39,1.09,2.39,2.86A3.58,3.58,0,0,1,373.74,247.4Zm-1-.81c0-1.13-.45-1.76-1.37-1.76-.77,0-1.27.54-1.35,1.83h2.72Z"/><path class="cls-1" d="M382.24,244.65l-.49.64a2,2,0,0,0-1.24-.43c-.91,0-1.49.72-1.49,2.23s.58,2.14,1.49,2.14a2.17,2.17,0,0,0,1.27-.44l.46.66a2.73,2.73,0,0,1-1.77.64c-1.57,0-2.53-1.11-2.53-3s.95-3.08,2.53-3.08A2.58,2.58,0,0,1,382.24,244.65Z"/><path class="cls-1" d="M388,249.38l-.23.71a1.17,1.17,0,0,1-1.13-.87,2,2,0,0,1-1.73.87,1.69,1.69,0,0,1-1.85-1.75c0-1.24.94-1.91,2.55-1.91h.89V246c0-.84-.4-1.15-1.21-1.15a5.21,5.21,0,0,0-1.56.31l-.25-.74a5.72,5.72,0,0,1,2-.39c1.4,0,2,.71,2,1.92v2.65C387.52,249.11,387.7,249.28,388,249.38Zm-1.5-.95V247.1h-.75c-1.07,0-1.61.39-1.61,1.19a.91.91,0,0,0,1,1A1.49,1.49,0,0,0,386.5,248.43Z"/><path class="cls-1" d="M394,245.8V250h-1v-4c0-.87-.35-1.12-.91-1.12a1.75,1.75,0,0,0-1.47,1V250h-1v-5.8h.86l.09.86a2.1,2.1,0,0,1,1.77-1A1.59,1.59,0,0,1,394,245.8Z"/><path class="cls-1" d="M403.71,247.05c0,1.8-.95,3-2.59,3s-2.58-1.19-2.58-3,.95-3,2.6-3S403.71,245.22,403.71,247.05Zm-4.08,0c0,1.51.53,2.22,1.49,2.22s1.5-.71,1.5-2.23-.53-2.21-1.48-2.21S399.63,245.54,399.63,247.06Z"/><path class="cls-1" d="M409.79,245.8V250h-1v-4c0-.87-.35-1.12-.91-1.12a1.77,1.77,0,0,0-1.48,1V250h-1v-5.8h.87l.09.86a2.08,2.08,0,0,1,1.77-1A1.58,1.58,0,0,1,409.79,245.8Z"/><path class="cls-1" d="M411.77,248.81v-7l1-.12v7.08c0,.31.1.46.37.46a1.06,1.06,0,0,0,.37-.06l.27.7a1.73,1.73,0,0,1-.81.2A1.14,1.14,0,0,1,411.77,248.81Z"/><path class="cls-1" d="M417.37,250a3,3,0,0,1-2.69,2.31l-.11-.79A2,2,0,0,0,416.4,250h-.34l-1.95-5.8h1.08l1.55,5.06,1.52-5.06h1.05Z"/><path class="cls-1" d="M428.18,247.05c0,1.82-.86,3-2.27,3a1.93,1.93,0,0,1-1.54-.77l-.1.64h-.89v-8.13l1-.12v3.18A1.94,1.94,0,0,1,426,244C427.34,244,428.18,245.12,428.18,247.05Zm-1.08,0c0-1.65-.54-2.22-1.36-2.22a1.64,1.64,0,0,0-1.35.9v2.77a1.56,1.56,0,0,0,1.27.79C426.51,249.29,427.1,248.64,427.1,247.05Z"/><path class="cls-1" d="M434.27,247.4h-3.7c.1,1.35.73,1.86,1.56,1.86a2.45,2.45,0,0,0,1.51-.5l.44.6a3.16,3.16,0,0,1-2,.73c-1.62,0-2.57-1.13-2.57-3s.92-3.09,2.41-3.09,2.39,1.09,2.39,2.86C434.29,247.09,434.28,247.27,434.27,247.4Zm-1-.81c0-1.13-.45-1.76-1.37-1.76s-1.27.54-1.35,1.83h2.72Z"/><path class="cls-1" d="M443.68,247.05c0,1.76-.78,3-2.27,3a1.87,1.87,0,0,1-1.52-.66v2.75l-1,.12v-8.14h.86l.08.78a2.12,2.12,0,0,1,1.72-.91C443.08,244,443.68,245.23,443.68,247.05Zm-1.09,0c0-1.51-.44-2.22-1.31-2.22a1.77,1.77,0,0,0-1.39.9v2.83a1.49,1.49,0,0,0,1.27.7C442.09,249.26,442.59,248.57,442.59,247.05Z"/><path class="cls-1" d="M445.36,248.81v-7l1-.12v7.08c0,.31.1.46.36.46a1.06,1.06,0,0,0,.37-.06l.27.7a1.72,1.72,0,0,1-.8.2A1.14,1.14,0,0,1,445.36,248.81Z"/><path class="cls-1" d="M453,250h-.87l-.08-.91a1.94,1.94,0,0,1-1.8,1,1.55,1.55,0,0,1-1.62-1.77v-4.16h1v4.05c0,.79.26,1.09.89,1.09a1.74,1.74,0,0,0,1.45-1v-4.14h1Z"/><path class="cls-1" d="M459.71,244.42a5.41,5.41,0,0,1-1.69.18,1.53,1.53,0,0,1,1,1.46,2,2,0,0,1-2.21,2,2.25,2.25,0,0,1-.74-.11.72.72,0,0,0-.29.54c0,.26.17.47.76.47h.93c1.19,0,2,.69,2,1.61,0,1.12-.93,1.76-2.72,1.76s-2.49-.58-2.49-1.76h.92c0,.66.29,1,1.57,1s1.7-.32,1.7-.9-.45-.83-1.17-.83h-.92c-1,0-1.49-.52-1.49-1.1a1.25,1.25,0,0,1,.64-1,1.66,1.66,0,0,1-1-1.61,2.06,2.06,0,0,1,2.23-2,5,5,0,0,0,2.65-.52Zm-4.15,1.63a1.18,1.18,0,0,0,1.22,1.31c.8,0,1.22-.48,1.22-1.32s-.41-1.29-1.24-1.29A1.16,1.16,0,0,0,455.56,246.05Z"/><path class="cls-1" d="M465.43,244.42a5.41,5.41,0,0,1-1.69.18,1.53,1.53,0,0,1,1,1.46,2,2,0,0,1-2.21,2,2.25,2.25,0,0,1-.74-.11.72.72,0,0,0-.29.54c0,.26.17.47.76.47h.93c1.19,0,2,.69,2,1.61,0,1.12-.93,1.76-2.72,1.76s-2.49-.58-2.49-1.76h.92c0,.66.29,1,1.57,1s1.69-.32,1.69-.9-.44-.83-1.16-.83h-.92c-1,0-1.49-.52-1.49-1.1a1.25,1.25,0,0,1,.64-1,1.66,1.66,0,0,1-1-1.61,2.06,2.06,0,0,1,2.23-2,5,5,0,0,0,2.65-.52Zm-4.15,1.63a1.18,1.18,0,0,0,1.22,1.31c.8,0,1.22-.48,1.22-1.32s-.41-1.29-1.24-1.29A1.16,1.16,0,0,0,461.28,246.05Z"/><path class="cls-1" d="M470.72,247.4H467c.1,1.35.73,1.86,1.57,1.86a2.42,2.42,0,0,0,1.5-.5l.44.6a3.16,3.16,0,0,1-2,.73c-1.62,0-2.56-1.13-2.56-3s.91-3.09,2.41-3.09,2.38,1.09,2.38,2.86C470.74,247.09,470.73,247.27,470.72,247.4Zm-1-.81c0-1.13-.45-1.76-1.36-1.76s-1.28.54-1.36,1.83h2.72Z"/><path class="cls-1" d="M476.9,241.83V250H476l-.1-.81a1.91,1.91,0,0,1-1.67.94c-1.41,0-2.19-1.2-2.19-3s.86-3.06,2.28-3.06a2.06,2.06,0,0,1,1.56.71v-3Zm-1,6.6v-2.84a1.66,1.66,0,0,0-1.34-.76c-.87,0-1.41.73-1.41,2.23s.48,2.23,1.32,2.23A1.65,1.65,0,0,0,475.89,248.43Z"/><path class="cls-1" d="M483.12,242.07a.68.68,0,0,1-.72.68.69.69,0,1,1,0-1.37A.68.68,0,0,1,483.12,242.07Zm-.2,7.89h-1v-5.8h1Z"/><path class="cls-1" d="M489.42,245.8V250h-1v-4c0-.87-.35-1.12-.92-1.12a1.77,1.77,0,0,0-1.47,1V250h-1v-5.8h.87l.09.86a2.08,2.08,0,0,1,1.77-1A1.59,1.59,0,0,1,489.42,245.8Z"/><path class="cls-1" d="M494.38,249.69a2.16,2.16,0,0,1-1.3.4,1.45,1.45,0,0,1-1.56-1.65v-3.5h-1v-.78h1v-1.31l1-.12v1.43h1.38l-.11.78h-1.27v3.45c0,.59.19.86.7.86A1.4,1.4,0,0,0,494,249Z"/><path class="cls-1" d="M500.07,247.05c0,1.8-.95,3-2.59,3s-2.58-1.19-2.58-3,.94-3,2.59-3S500.07,245.22,500.07,247.05Zm-4.08,0c0,1.51.52,2.22,1.49,2.22s1.5-.71,1.5-2.23-.53-2.21-1.49-2.21S496,245.54,496,247.06Z"/><path class="cls-1" d="M329.68,259.94H328.5v3.22h-1v-7.58h2c1.89,0,2.88.72,2.88,2.14a2,2,0,0,1-1.64,2l2.05,3.4h-1.25Zm-.12-.8c1.05,0,1.66-.39,1.66-1.42s-.54-1.33-1.78-1.33h-.94v2.75Z"/><path class="cls-1" d="M338.75,256.19l-.57.67a2.23,2.23,0,0,0-1.46-.56c-1.14,0-2.1.77-2.1,3.06s.91,3.05,2.09,3.05a2.56,2.56,0,0,0,1.61-.64l.52.67a2.93,2.93,0,0,1-2.16.85c-1.84,0-3.17-1.38-3.17-3.93s1.43-3.91,3.14-3.91A3,3,0,0,1,338.75,256.19Z"/><path class="cls-1" d="M345.1,257.92c0,1.74-1.26,2.45-2.94,2.45h-1v2.79h-1v-7.58h2C344,255.58,345.1,256.33,345.1,257.92Zm-1.11,0c0-1.13-.73-1.54-1.85-1.54h-.93v3.16h.91C343.24,259.55,344,259.22,344,257.93Z"/><path class="cls-1" d="M354.22,260.25c0,1.76-.78,3-2.28,3a1.86,1.86,0,0,1-1.51-.66v2.75l-1,.12v-8.14h.87l.08.78a2.12,2.12,0,0,1,1.72-.91C353.62,257.23,354.22,258.43,354.22,260.25Zm-1.09,0c0-1.5-.44-2.22-1.31-2.22a1.75,1.75,0,0,0-1.39.9v2.83a1.47,1.47,0,0,0,1.27.7C352.63,262.46,353.13,261.77,353.13,260.25Z"/><path class="cls-1" d="M360.7,260.25c0,1.8-.95,3-2.59,3s-2.58-1.19-2.58-3,1-3,2.6-3S360.7,258.42,360.7,260.25Zm-4.08,0c0,1.51.53,2.22,1.49,2.22s1.5-.71,1.5-2.23-.53-2.21-1.48-2.21S356.62,258.75,356.62,260.26Z"/><path class="cls-1" d="M365.46,257.29l-.18,1a2,2,0,0,0-.51-.06c-.73,0-1.14.51-1.39,1.63v3.31h-1v-5.8h.87l.1,1.18a1.66,1.66,0,0,1,1.55-1.31A2.62,2.62,0,0,1,365.46,257.29Z"/><path class="cls-1" d="M369.65,262.89a2.15,2.15,0,0,1-1.29.4,1.46,1.46,0,0,1-1.57-1.65v-3.5h-1v-.78h1v-1.31l1-.12v1.43h1.37l-.11.78h-1.26v3.45c0,.59.18.86.69.86a1.4,1.4,0,0,0,.77-.25Z"/><path class="cls-1" d="M376.12,263.16h-1v-6.28l-1.72,1-.44-.71,2.28-1.41h.89Z"/><path class="cls-1" d="M379.41,262.52a1.73,1.73,0,0,1-.2.78l-.73,1.68h-.73l.44-1.82a.81.81,0,0,1-.31-.64.77.77,0,0,1,1.53,0Zm0-4a.77.77,0,1,1-.77-.76A.76.76,0,0,1,379.41,258.47Z"/><path class="cls-1" d="M388.74,260.25c0,1.76-.78,3-2.28,3a1.88,1.88,0,0,1-1.52-.66v2.75l-1,.12v-8.14h.87l.08.78a2.11,2.11,0,0,1,1.71-.91C388.13,257.23,388.74,258.43,388.74,260.25Zm-1.09,0c0-1.5-.44-2.22-1.31-2.22a1.77,1.77,0,0,0-1.4.9v2.83a1.5,1.5,0,0,0,1.28.7C387.14,262.46,387.65,261.77,387.65,260.25Z"/><path class="cls-1" d="M395.22,260.25c0,1.8-1,3-2.59,3s-2.58-1.19-2.58-3,.94-3,2.59-3S395.22,258.42,395.22,260.25Zm-4.08,0c0,1.51.52,2.22,1.49,2.22s1.5-.71,1.5-2.23-.53-2.21-1.49-2.21S391.14,258.75,391.14,260.26Z"/><path class="cls-1" d="M400,257.29l-.19,1a1.9,1.9,0,0,0-.5-.06c-.73,0-1.15.51-1.39,1.63v3.31h-1v-5.8h.87l.1,1.18a1.64,1.64,0,0,1,1.55-1.31A2.69,2.69,0,0,1,400,257.29Z"/><path class="cls-1" d="M404.17,262.89a2.16,2.16,0,0,1-1.3.4,1.45,1.45,0,0,1-1.56-1.65v-3.5h-1v-.78h1v-1.31l1-.12v1.43h1.38l-.11.78h-1.27v3.45c0,.59.19.86.7.86a1.4,1.4,0,0,0,.77-.25Z"/><path class="cls-1" d="M411.81,257.7c0,1.38-.88,2.35-3.14,4.61H412l-.12.85h-4.35v-.81c2.6-2.7,3.24-3.41,3.24-4.61a1.14,1.14,0,0,0-1.21-1.22,1.83,1.83,0,0,0-1.5.81l-.68-.53a2.71,2.71,0,0,1,2.23-1.11A2,2,0,0,1,411.81,257.7Z"/><path class="cls-1" d="M421.79,263.16h-1.37l-1-4.89-1.05,4.89H417l-1.35-5.8h1l1,5.09,1.15-5.09H420l1.09,5.09,1.06-5.09h1Z"/><path class="cls-1" d="M425.59,255.27a.68.68,0,0,1-.72.68.69.69,0,1,1,0-1.37A.68.68,0,0,1,425.59,255.27Zm-.2,7.89h-1v-5.8h1Z"/><path class="cls-1" d="M427.42,262v-7l1-.12V262c0,.31.1.46.36.46a1.06,1.06,0,0,0,.37-.06l.27.7a1.73,1.73,0,0,1-.81.2A1.14,1.14,0,0,1,427.42,262Z"/><path class="cls-1" d="M430.65,262v-7l1-.12V262c0,.31.1.46.36.46a1.08,1.08,0,0,0,.38-.06l.26.7a1.72,1.72,0,0,1-.8.2A1.14,1.14,0,0,1,430.65,262Z"/><path class="cls-1" d="M441.65,260.25c0,1.82-.87,3-2.28,3a1.94,1.94,0,0,1-1.54-.77l-.1.64h-.89V255l1-.12v3.18a2,2,0,0,1,1.64-.86C440.8,257.23,441.65,258.32,441.65,260.25Zm-1.09,0c0-1.65-.54-2.22-1.36-2.22a1.66,1.66,0,0,0-1.35.9v2.78a1.57,1.57,0,0,0,1.28.78C440,262.49,440.56,261.84,440.56,260.25Z"/><path class="cls-1" d="M447.73,260.6H444c.1,1.35.73,1.86,1.57,1.86a2.42,2.42,0,0,0,1.5-.5l.44.6a3.16,3.16,0,0,1-2,.73c-1.62,0-2.56-1.13-2.56-3s.91-3.09,2.4-3.09,2.39,1.09,2.39,2.86C447.75,260.29,447.74,260.47,447.73,260.6Zm-1-.81c0-1.13-.45-1.76-1.36-1.76s-1.28.54-1.36,1.83h2.72Z"/><path class="cls-1" d="M456.83,255v8.13h-.89l-.1-.81a1.94,1.94,0,0,1-1.68.94c-1.4,0-2.18-1.2-2.18-3s.85-3.06,2.27-3.06a2.12,2.12,0,0,1,1.57.71v-3Zm-1,6.6v-2.84a1.68,1.68,0,0,0-1.35-.76c-.87,0-1.4.73-1.4,2.23s.48,2.23,1.32,2.23A1.68,1.68,0,0,0,455.82,261.63Z"/><path class="cls-1" d="M460.13,255.27a.68.68,0,0,1-.72.68.69.69,0,1,1,0-1.37A.68.68,0,0,1,460.13,255.27Zm-.2,7.89h-1v-5.8h1Z"/><path class="cls-1" d="M465.56,257.89l-.43.64a2.7,2.7,0,0,0-1.51-.5c-.66,0-1.06.3-1.06.76s.31.69,1.24.93c1.22.31,1.93.8,1.93,1.81,0,1.21-1.12,1.76-2.29,1.76a3.2,3.2,0,0,1-2.19-.76l.54-.62a2.58,2.58,0,0,0,1.63.57c.75,0,1.24-.33,1.24-.89s-.29-.79-1.41-1.08-1.75-.87-1.75-1.69.89-1.59,2.09-1.59A3.06,3.06,0,0,1,465.56,257.89Z"/><path class="cls-1" d="M471.54,262.58l-.23.71a1.18,1.18,0,0,1-1.13-.87,2,2,0,0,1-1.73.87,1.68,1.68,0,0,1-1.84-1.75c0-1.24.93-1.91,2.55-1.91h.89v-.43c0-.84-.41-1.15-1.21-1.15a5.1,5.1,0,0,0-1.56.31l-.26-.74a5.81,5.81,0,0,1,2-.39c1.39,0,2,.71,2,1.92v2.65C471.06,262.31,471.25,262.48,471.54,262.58Zm-1.49-.95V260.3h-.76c-1.07,0-1.61.39-1.61,1.19a.91.91,0,0,0,1,1A1.5,1.5,0,0,0,470.05,261.63Z"/><path class="cls-1" d="M478,260.25c0,1.82-.87,3-2.28,3a1.94,1.94,0,0,1-1.54-.77l-.1.64h-.89V255l1-.12v3.18a2,2,0,0,1,1.64-.86C477.1,257.23,478,258.32,478,260.25Zm-1.09,0c0-1.65-.54-2.22-1.36-2.22a1.66,1.66,0,0,0-1.35.9v2.78a1.57,1.57,0,0,0,1.28.78C476.28,262.49,476.86,261.84,476.86,260.25Z"/><path class="cls-1" d="M479.62,262v-7l1-.12V262c0,.31.1.46.36.46a1.08,1.08,0,0,0,.38-.06l.26.7a1.69,1.69,0,0,1-.8.2A1.14,1.14,0,0,1,479.62,262Z"/><path class="cls-1" d="M487.14,260.6h-3.69c.1,1.35.72,1.86,1.56,1.86a2.47,2.47,0,0,0,1.51-.5l.44.6a3.21,3.21,0,0,1-2,.73c-1.62,0-2.56-1.13-2.56-3s.91-3.09,2.41-3.09,2.38,1.09,2.38,2.86C487.16,260.29,487.15,260.47,487.14,260.6Zm-1-.81c0-1.13-.45-1.76-1.36-1.76s-1.28.54-1.35,1.83h2.71Z"/><path class="cls-1" d="M493.32,255v8.13h-.89l-.1-.81a1.91,1.91,0,0,1-1.67.94c-1.41,0-2.19-1.2-2.19-3s.86-3.06,2.28-3.06a2.09,2.09,0,0,1,1.56.71v-3Zm-1,6.6v-2.84A1.66,1.66,0,0,0,491,258c-.87,0-1.41.73-1.41,2.23s.49,2.23,1.32,2.23A1.65,1.65,0,0,0,492.31,261.63Z"/><path class="cls-1" d="M332.7,276.36h-1.37l-1-4.89-1.05,4.89h-1.34l-1.35-5.8h1l1,5.09,1.15-5.09h1.13l1.09,5.09,1.06-5.09h1Z"/><path class="cls-1" d="M339.7,272.2v4.16h-1v-4c0-.87-.38-1.12-.93-1.12a1.79,1.79,0,0,0-1.46,1v4.13h-1v-8.12l1-.11v3.23a2.09,2.09,0,0,1,1.72-.93A1.6,1.6,0,0,1,339.7,272.2Z"/><path class="cls-1" d="M346.09,273.8H342.4c.09,1.35.72,1.86,1.56,1.86a2.42,2.42,0,0,0,1.5-.5l.44.6a3.16,3.16,0,0,1-2,.73c-1.62,0-2.56-1.13-2.56-3s.91-3.09,2.41-3.09,2.38,1.09,2.38,2.86C346.11,273.49,346.1,273.67,346.09,273.8Zm-1-.81c0-1.13-.45-1.76-1.36-1.76s-1.28.54-1.35,1.83h2.71Z"/><path class="cls-1" d="M352.2,272.2v4.16h-1v-4c0-.87-.35-1.12-.91-1.12a1.75,1.75,0,0,0-1.47,1v4.12h-1v-5.8h.87l.09.86a2.09,2.09,0,0,1,1.77-1A1.59,1.59,0,0,1,352.2,272.2Z"/><path class="cls-1" d="M361.46,276.36h-.87l-.08-.9a2,2,0,0,1-1.8,1,1.55,1.55,0,0,1-1.62-1.77v-4.16h1v4.05c0,.79.27,1.09.89,1.09a1.77,1.77,0,0,0,1.46-1v-4.14h1Z"/><path class="cls-1" d="M367.09,271.09l-.43.64a2.7,2.7,0,0,0-1.51-.5c-.66,0-1.06.3-1.06.76s.31.69,1.24.93c1.22.31,1.93.8,1.93,1.81,0,1.21-1.12,1.76-2.29,1.76a3.2,3.2,0,0,1-2.19-.76l.54-.62a2.58,2.58,0,0,0,1.63.57c.75,0,1.24-.33,1.24-.89s-.29-.79-1.41-1.08S363,272.84,363,272s.89-1.59,2.09-1.59A3.06,3.06,0,0,1,367.09,271.09Z"/><path class="cls-1" d="M373,273.8h-3.7c.1,1.35.73,1.86,1.57,1.86a2.42,2.42,0,0,0,1.5-.5l.44.6a3.16,3.16,0,0,1-2,.73c-1.62,0-2.56-1.13-2.56-3s.91-3.09,2.41-3.09,2.38,1.09,2.38,2.86C373.06,273.49,373.05,273.67,373,273.8Zm-1-.81c0-1.13-.45-1.76-1.36-1.76s-1.28.54-1.36,1.83h2.72Z"/><path class="cls-1" d="M379.22,268.23v8.13h-.89l-.1-.81a1.91,1.91,0,0,1-1.67.94c-1.41,0-2.19-1.2-2.19-3s.86-3.06,2.28-3.06a2.09,2.09,0,0,1,1.56.71v-3Zm-1,6.6V272a1.66,1.66,0,0,0-1.34-.76c-.87,0-1.41.73-1.41,2.23s.48,2.23,1.32,2.23A1.65,1.65,0,0,0,378.21,274.83Z"/><path class="cls-1" d="M382.35,275.72a.77.77,0,1,1-.77-.76A.76.76,0,0,1,382.35,275.72Z"/></g><g id="Cable"><line class="cls-8" x1="591.83" y1="126.27" x2="393.77" y2="126.27"/><line class="cls-8" x1="591.83" y1="137.49" x2="393.77" y2="137.49"/><path class="cls-8" d="M396.59,129.09l-.12-.72-.3-.72a2.79,2.79,0,0,0-5.1.72l-.12.72.12.72a2.77,2.77,0,0,0,5.1.66l.3-.66Z"/><path class="cls-8" d="M393.77,131.91l-.72.06a2.83,2.83,0,0,0,0,5.46l.72.06"/><line class="cls-8" x1="234.83" y1="126.27" x2="385.67" y2="126.27"/><line class="cls-8" x1="234.83" y1="137.49" x2="385.67" y2="137.49"/><path class="cls-8" d="M385.67,131.91l.72-.12a2.79,2.79,0,0,0,0-5.4l-.72-.12"/><path class="cls-8" d="M388.49,134.67l-.12-.72-.24-.66A2.82,2.82,0,0,0,383,134l-.12.72.12.78a2.83,2.83,0,0,0,5.16.66l.24-.66Z"/><line class="cls-8" x1="234.83" y1="125.73" x2="234.83" y2="138.09"/><line class="cls-8" x1="139.61" y1="125.19" x2="139.61" y2="138.63"/><line class="cls-8" x1="141.11" y1="118.77" x2="141.11" y2="145.05"/><line class="cls-8" x1="183.23" y1="118.17" x2="183.23" y2="145.59"/><line class="cls-8" x1="181.73" y1="118.17" x2="181.73" y2="145.59"/><line class="cls-8" x1="180.23" y1="118.17" x2="180.23" y2="145.59"/><line class="cls-8" x1="178.73" y1="118.17" x2="178.73" y2="145.59"/><line class="cls-8" x1="177.23" y1="118.17" x2="177.23" y2="145.59"/><line class="cls-8" x1="175.73" y1="118.17" x2="175.73" y2="145.59"/><polyline class="cls-8" points="174.24 145.59 174.24 118.17 174.18 117.87 173.94 117.63 173.63 117.57"/><line class="cls-8" x1="172.73" y1="118.17" x2="172.73" y2="145.59"/><line class="cls-8" x1="190.37" y1="117.57" x2="190.37" y2="146.19"/><line class="cls-8" x1="187.97" y1="117.57" x2="187.97" y2="146.19"/><line class="cls-8" x1="234.83" y1="123.69" x2="234.83" y2="140.07"/><line class="cls-8" x1="228.59" y1="122.19" x2="228.59" y2="141.57"/><line class="cls-8" x1="221.69" y1="121.29" x2="221.69" y2="142.47"/><line class="cls-8" x1="214.85" y1="120.39" x2="214.85" y2="143.37"/><line class="cls-8" x1="208.01" y1="119.49" x2="208.01" y2="144.27"/><line class="cls-8" x1="201.11" y1="118.59" x2="201.11" y2="145.17"/><line class="cls-8" x1="225.29" y1="121.77" x2="225.29" y2="141.99"/><line class="cls-8" x1="218.45" y1="120.87" x2="218.45" y2="142.89"/><line class="cls-8" x1="211.55" y1="119.97" x2="211.55" y2="143.79"/><line class="cls-8" x1="204.71" y1="119.07" x2="204.71" y2="144.69"/><line class="cls-8" x1="197.81" y1="118.17" x2="197.81" y2="145.59"/><line class="cls-8" x1="97.79" y1="129.15" x2="97.79" y2="134.67"/><polyline class="cls-8" points="173.63 117.57 173.33 117.57 173.03 117.63 172.85 117.87 172.73 118.17"/><line class="cls-8" x1="190.37" y1="146.19" x2="187.97" y2="146.19"/><line class="cls-8" x1="190.37" y1="117.57" x2="187.97" y2="117.57"/><polyline class="cls-8" points="197.81 145.59 234.11 140.85 234.47 140.73 234.77 140.49 234.83 140.07"/><line class="cls-8" x1="234.11" y1="122.91" x2="197.81" y2="118.17"/><polyline class="cls-8" points="234.83 123.69 234.77 123.33 234.47 123.03 234.11 122.91"/><line class="cls-8" x1="197.81" y1="145.59" x2="190.37" y2="145.59"/><line class="cls-8" x1="187.97" y1="145.59" x2="183.23" y2="145.59"/><line class="cls-8" x1="172.73" y1="145.59" x2="141.71" y2="145.59"/><polyline class="cls-8" points="141.11 145.05 141.17 145.35 141.41 145.53 141.71 145.59"/><line class="cls-8" x1="197.81" y1="118.17" x2="190.37" y2="118.17"/><line class="cls-8" x1="187.97" y1="118.17" x2="183.23" y2="118.17"/><polyline class="cls-8" points="172.73 118.17 141.71 118.17 141.41 118.23 141.17 118.47 141.11 118.77"/><line class="cls-8" x1="141.11" y1="138.63" x2="139.61" y2="138.63"/><line class="cls-8" x1="141.11" y1="125.19" x2="139.61" y2="125.19"/><polyline class="cls-9" points="110.81 126.69 110.81 137.13 112.31 137.13"/><polyline class="cls-9" points="110.81 126.69 112.31 126.69 112.31 137.13"/><polyline class="cls-9" points="119.33 126.69 119.33 137.13 120.83 137.13"/><polyline class="cls-9" points="119.33 126.69 120.83 126.69 120.83 137.13"/><polyline class="cls-9" points="128.69 126.69 128.69 137.13 130.19 137.13"/><polyline class="cls-9" points="128.69 126.69 130.19 126.69 130.19 137.13"/><line class="cls-8" x1="139.61" y1="137.13" x2="109.07" y2="137.13"/><line class="cls-8" x1="139.61" y1="126.69" x2="109.07" y2="126.69"/><line class="cls-8" x1="100.19" y1="126.93" x2="97.79" y2="129.15"/><polyline class="cls-8" points="100.19 126.93 107.69 127.83 109.08 126.69"/><line class="cls-8" x1="100.19" y1="136.83" x2="97.79" y2="134.67"/><polyline class="cls-8" points="100.19 136.83 107.69 135.93 109.08 137.13 109.08 126.69"/><line class="cls-8" x1="107.69" y1="127.83" x2="107.69" y2="135.93"/><line class="cls-8" x1="100.19" y1="126.93" x2="100.19" y2="136.83"/><line class="cls-8" x1="110.81" y1="126.69" x2="110.81" y2="137.13"/><line class="cls-8" x1="112.31" y1="126.69" x2="112.31" y2="137.13"/><line class="cls-8" x1="119.33" y1="126.69" x2="119.33" y2="137.13"/><line class="cls-8" x1="120.83" y1="126.69" x2="120.83" y2="137.13"/><line class="cls-8" x1="128.69" y1="126.69" x2="128.69" y2="137.13"/><line class="cls-8" x1="130.19" y1="126.69" x2="130.19" y2="137.13"/><polyline class="cls-8" points="175.74 118.17 175.68 117.87 175.44 117.63 175.13 117.57 174.84 117.57 174.53 117.63 174.35 117.87 174.24 118.17"/><polyline class="cls-8" points="177.24 118.17 177.18 117.87 176.94 117.63 176.63 117.57 176.34 117.57 176.03 117.63 175.85 117.87 175.74 118.17"/><polyline class="cls-8" points="178.74 118.17 178.68 117.87 178.44 117.63 178.13 117.57 177.84 117.57 177.53 117.63 177.29 117.87 177.24 118.17"/><polyline class="cls-8" points="180.24 118.17 180.12 117.87 179.94 117.63 179.63 117.57 179.34 117.57 179.03 117.63 178.79 117.87 178.74 118.17"/><polyline class="cls-8" points="181.74 118.17 181.62 117.87 181.44 117.63 181.13 117.57 180.84 117.57 180.53 117.63 180.29 117.87 180.24 118.17"/><polyline class="cls-8" points="183.24 118.17 183.12 117.87 182.94 117.63 182.63 117.57 182.34 117.57 182.03 117.63 181.79 117.87 181.74 118.17"/><polyline class="cls-8" points="173.63 146.19 173.94 146.13 174.18 145.89 174.24 145.59"/><line class="cls-8" x1="173.63" y1="146.19" x2="173.33" y2="146.19"/><polyline class="cls-8" points="172.74 145.59 172.85 145.89 173.03 146.13 173.34 146.19"/><polyline class="cls-8" points="175.13 146.19 175.44 146.13 175.68 145.89 175.74 145.59"/><line class="cls-8" x1="175.13" y1="146.19" x2="174.83" y2="146.19"/><polyline class="cls-8" points="174.24 145.59 174.35 145.89 174.53 146.13 174.84 146.19"/><polyline class="cls-8" points="176.63 146.19 176.94 146.13 177.18 145.89 177.24 145.59"/><line class="cls-8" x1="176.63" y1="146.19" x2="176.33" y2="146.19"/><polyline class="cls-8" points="175.74 145.59 175.85 145.89 176.03 146.13 176.34 146.19"/><polyline class="cls-8" points="178.13 146.19 178.44 146.13 178.68 145.89 178.74 145.59"/><line class="cls-8" x1="178.13" y1="146.19" x2="177.83" y2="146.19"/><polyline class="cls-8" points="177.24 145.59 177.29 145.89 177.53 146.13 177.84 146.19"/><polyline class="cls-8" points="179.63 146.19 179.94 146.13 180.12 145.89 180.24 145.59"/><line class="cls-8" x1="179.63" y1="146.19" x2="179.33" y2="146.19"/><polyline class="cls-8" points="178.74 145.59 178.79 145.89 179.03 146.13 179.34 146.19"/><polyline class="cls-8" points="181.13 146.19 181.44 146.13 181.62 145.89 181.74 145.59"/><line class="cls-8" x1="181.13" y1="146.19" x2="180.83" y2="146.19"/><polyline class="cls-8" points="180.24 145.59 180.29 145.89 180.53 146.13 180.84 146.19"/><polyline class="cls-8" points="182.63 146.19 182.94 146.13 183.12 145.89 183.24 145.59"/><line class="cls-8" x1="182.63" y1="146.19" x2="182.33" y2="146.19"/><polyline class="cls-8" points="181.74 145.59 181.79 145.89 182.03 146.13 182.34 146.19"/><path d="M98.46,97.12c0,2.84-2.07,4-4.81,4H92.08v4.56H90.37V93.28h3.26C96.62,93.28,98.46,94.51,98.46,97.12Zm-1.82,0c0-1.85-1.19-2.52-3-2.52H92.08v5.17h1.5C95.41,99.78,96.64,99.24,96.64,97.13Z"/><path d="M104.85,105.69h-1.66V95.41l-2.81,1.71L99.66,96l3.73-2.31h1.46Z"/><rect class="cls-6" x="618.96" y="127.18" width="35.09" height="2.26"/><rect class="cls-6" x="654.05" y="127.74" width="4.37" height="1.14"/><line class="cls-6" x1="658.7" y1="127.94" x2="658.7" y2="128.69"/><rect class="cls-6" x="618.96" y="129.99" width="35.09" height="2.26"/><rect class="cls-6" x="654.05" y="130.55" width="4.37" height="1.14"/><line class="cls-6" x1="658.7" y1="130.75" x2="658.7" y2="131.49"/><rect class="cls-6" x="618.96" y="132.79" width="35.09" height="2.26"/><rect class="cls-6" x="654.05" y="133.35" width="4.37" height="1.14"/><line class="cls-6" x1="658.7" y1="133.55" x2="658.7" y2="134.3"/><rect class="cls-6" x="616.54" y="138.41" width="35.09" height="2.26" transform="matrix(0.96, 0.29, -0.29, 0.96, 68.73, -179.69)"/><rect class="cls-6" x="650.81" y="144.47" width="2.44" height="1.14" transform="matrix(0.96, 0.29, -0.29, 0.96, 71.13, -184.71)"/><line class="cls-6" x1="653.58" y1="145.12" x2="653.36" y2="145.83"/><path class="cls-10" d="M605.1,138c5.82,0,6.17-1.11,14.21-1a1.82,1.82,0,0,0,1.82-1.82V128.2a1.83,1.83,0,0,0-1.82-1.82c-8,.08-8.39-1-14.21-1H593a1.85,1.85,0,0,0-1.82,1.82v9A1.86,1.86,0,0,0,593,138Z"/></g><g id="Pinout"><path class="cls-1" d="M85.06,225l-.56.68a2.48,2.48,0,0,0-1.62-.62c-1.29,0-2.36.88-2.36,3.41s1,3.38,2.35,3.38a2.71,2.71,0,0,0,1.76-.69l.53.67a3.21,3.21,0,0,1-2.33.91c-2,0-3.42-1.5-3.42-4.27s1.54-4.27,3.41-4.27A3.21,3.21,0,0,1,85.06,225Z"/><path class="cls-1" d="M92.78,228.47c0,2.72-1.39,4.26-3.46,4.26s-3.45-1.49-3.45-4.25,1.42-4.29,3.45-4.29S92.78,225.69,92.78,228.47Zm-5.81,0c0,2.4,1,3.39,2.35,3.39s2.36-1,2.36-3.4-.9-3.42-2.36-3.42S87,226.06,87,228.48Z"/><path class="cls-1" d="M100.41,232.59H99l-3.48-7.12a31,31,0,0,1,.15,3.13v4h-1v-8.26h1.36l3.5,7.13c0-.23-.13-1.49-.13-2.51v-4.62h1Z"/><path class="cls-1" d="M108.58,232.59h-1.39l-3.48-7.12a31,31,0,0,1,.15,3.13v4h-1v-8.26h1.35l3.5,7.13c0-.23-.13-1.49-.13-2.51v-4.62h1Z"/><path class="cls-1" d="M115.34,225.17h-3.25V228h2.82v.84h-2.82v2.95h3.45v.84h-4.48v-8.26h4.4Z"/><path class="cls-1" d="M122.53,225l-.57.68a2.43,2.43,0,0,0-1.61-.62c-1.3,0-2.37.88-2.37,3.41s1,3.38,2.35,3.38a2.74,2.74,0,0,0,1.77-.69l.52.67a3.16,3.16,0,0,1-2.32.91c-2,0-3.42-1.5-3.42-4.27s1.53-4.27,3.4-4.27A3.25,3.25,0,0,1,122.53,225Z"/><path class="cls-1" d="M128.78,225.22h-2.31v7.37h-1v-7.37h-2.37v-.89h5.84Z"/><path class="cls-1" d="M136.27,228.47c0,2.72-1.39,4.26-3.46,4.26s-3.45-1.49-3.45-4.25,1.41-4.29,3.45-4.29S136.27,225.69,136.27,228.47Zm-5.81,0c0,2.4,1,3.39,2.35,3.39s2.35-1,2.35-3.4-.9-3.42-2.35-3.42S130.46,226.06,130.46,228.48Z"/><path class="cls-1" d="M140.6,229h-1.37v3.55h-1v-8.26h2.13c2,0,3.09.8,3.09,2.32a2.16,2.16,0,0,1-1.8,2.21l2.23,3.73h-1.23Zm-.15-.81c1.18,0,1.87-.44,1.87-1.58s-.6-1.5-2-1.5h-1.08v3.08Z"/><path class="cls-1" d="M149.91,225.14l-.56.63a2.86,2.86,0,0,0-1.9-.72c-.87,0-1.53.42-1.53,1.23s.35,1.08,1.83,1.53,2.43.94,2.43,2.48-1.08,2.44-2.89,2.44a3.83,3.83,0,0,1-2.77-1.06l.58-.66a3.12,3.12,0,0,0,2.17.86c1,0,1.83-.52,1.83-1.54,0-.85-.41-1.22-1.83-1.65-1.62-.5-2.42-1.11-2.42-2.37a2.28,2.28,0,0,1,2.56-2.12A3.39,3.39,0,0,1,149.91,225.14Z"/><path class="cls-1" d="M320.09,232.59H318.7l-3.48-7.12c.06.66.14,1.61.14,3.13v4h-1v-8.26h1.36l3.5,7.13c0-.23-.13-1.49-.13-2.51v-4.62h1Z"/><path class="cls-1" d="M327.59,229.42c0,2-1,3.31-2.78,3.31s-2.78-1.28-2.78-3.29,1-3.31,2.79-3.31S327.59,227.4,327.59,229.42Zm-4.48,0c0,1.67.6,2.47,1.7,2.47s1.7-.8,1.7-2.49-.6-2.47-1.69-2.47S323.11,227.75,323.11,229.44Z"/><path class="cls-1" d="M332.58,232.31a2.38,2.38,0,0,1-1.39.42,1.56,1.56,0,0,1-1.67-1.76v-3.91h-1.09v-.78h1.09v-1.45l1-.11v1.56h1.52l-.11.78h-1.41v3.86c0,.66.23,1,.79,1a1.57,1.57,0,0,0,.88-.28Z"/><path class="cls-1" d="M338.29,229.78h-4.06c.09,1.52.81,2.12,1.76,2.12a2.7,2.7,0,0,0,1.65-.56l.45.6a3.36,3.36,0,0,1-2.17.79c-1.74,0-2.76-1.24-2.76-3.24s1-3.36,2.59-3.36,2.57,1.19,2.57,3.1C338.32,229.44,338.3,229.65,338.29,229.78Zm-1-.84c0-1.27-.5-2-1.55-2-.87,0-1.46.62-1.54,2.1h3.09Z"/><rect class="cls-11" x="78.72" y="238.11" width="195.06" height="84.22"/><rect class="cls-11" x="313.15" y="238.11" width="213.87" height="101.94"/><path d="M97.61,250.54c0,2.29-1.66,3.31-3.91,3.31H92.54v3.47H90.63v-9.95h2.94C96.08,247.37,97.61,248.39,97.61,250.54Zm-2,0c0-1.26-.76-1.77-2.06-1.77h-1v3.65h1C94.83,252.42,95.62,252,95.62,250.54Z"/><path d="M103.09,257.32h-1.81v-7.83l-2.17,1.31-.8-1.24,3.15-1.93h1.63Z"/><path class="cls-1" d="M92.94,270.36a1.54,1.54,0,0,1-1.29,1.54,1.54,1.54,0,0,1,1.5,1.62,2.07,2.07,0,0,1-2.27,2.05,2.52,2.52,0,0,1-2-.9l.55-.51a1.88,1.88,0,0,0,1.43.66,1.24,1.24,0,0,0,1.35-1.31c0-.92-.53-1.2-1.34-1.2h-.49l.11-.71h.34A1.12,1.12,0,0,0,92,270.42a1,1,0,0,0-1.11-1,1.88,1.88,0,0,0-1.38.6l-.48-.55a2.7,2.7,0,0,1,1.91-.79A1.77,1.77,0,0,1,92.94,270.36Z"/><path class="cls-1" d="M95.6,274.87a.7.7,0,1,1-.7-.69A.69.69,0,0,1,95.6,274.87Z"/><path class="cls-1" d="M100.3,269.48H97.7v2a2.24,2.24,0,0,1,1.06-.26,1.88,1.88,0,0,1,1.9,2.12,2.18,2.18,0,0,1-2.31,2.26,2.62,2.62,0,0,1-2-.85l.56-.54a1.8,1.8,0,0,0,1.4.64c.84,0,1.37-.55,1.37-1.53s-.53-1.39-1.21-1.39a2.05,2.05,0,0,0-.95.23h-.72v-3.37h3.61Z"/><path class="cls-1" d="M108.78,271.67v3.78h-.92V271.8c0-.79-.34-1-.74-1-.57,0-.88.37-1.24.93v3.74H105V271.8c0-.79-.34-1-.74-1-.57,0-.89.37-1.23.93v3.74h-.92v-5.27h.79l.08.77a1.73,1.73,0,0,1,1.51-.89,1.33,1.33,0,0,1,1.33.95,1.83,1.83,0,0,1,1.57-.95A1.43,1.43,0,0,1,108.78,271.67Z"/><path class="cls-1" d="M117.35,271.67v3.78h-.92V271.8c0-.79-.34-1-.74-1-.57,0-.88.37-1.24.93v3.74h-.92V271.8c0-.79-.34-1-.74-1-.56,0-.89.37-1.23.93v3.74h-.92v-5.27h.79l.08.77a1.75,1.75,0,0,1,1.51-.89,1.33,1.33,0,0,1,1.33.95,1.83,1.83,0,0,1,1.57-.95A1.43,1.43,0,0,1,117.35,271.67Z"/><path class="cls-1" d="M125.87,269.37H124v6.08H123v-6.08h-2v-.81H126Z"/><path class="cls-1" d="M129.09,272.53H128v2.92h-1v-6.89h1.81c1.72,0,2.62.66,2.62,1.95a1.8,1.8,0,0,1-1.49,1.85l1.86,3.09h-1.13Zm-.11-.73c1,0,1.51-.36,1.51-1.29s-.49-1.21-1.62-1.21H128v2.5Z"/><path class="cls-1" d="M135.14,272.53h-1.07v2.92h-.95v-6.89h1.81c1.72,0,2.62.66,2.62,1.95a1.8,1.8,0,0,1-1.49,1.85l1.86,3.09h-1.13Zm-.11-.73c1,0,1.51-.36,1.51-1.29s-.49-1.21-1.62-1.21h-.85v2.5Z"/><path class="cls-1" d="M143,269.24l-.52.58a2.35,2.35,0,0,0-1.57-.6c-.68,0-1.23.32-1.23,1s.27.86,1.51,1.24c1.09.34,2,.77,2,2.09s-.91,2-2.45,2a3.22,3.22,0,0,1-2.34-.89l.53-.59a2.63,2.63,0,0,0,1.79.7c.81,0,1.48-.4,1.48-1.23,0-.67-.32-1-1.49-1.33-1.33-.41-2-.92-2-2a1.92,1.92,0,0,1,2.16-1.8A2.91,2.91,0,0,1,143,269.24Z"/><path class="cls-1" d="M151.76,270.69c0,1.58-1.15,2.23-2.67,2.23h-.86v2.53h-.95v-6.89h1.8C150.74,268.56,151.76,269.24,151.76,270.69Zm-1,0c0-1-.66-1.4-1.68-1.4h-.84v2.87h.82C150.07,272.17,150.75,271.87,150.75,270.7Z"/><path class="cls-1" d="M153,274.41v-6.35l.91-.11v6.44c0,.28.09.42.33.42a.9.9,0,0,0,.34-.06l.24.64a1.55,1.55,0,0,1-.73.18A1,1,0,0,1,153,274.41Z"/><path class="cls-1" d="M159.88,275.45h-.79l-.07-.82a1.77,1.77,0,0,1-1.63.94,1.41,1.41,0,0,1-1.47-1.61v-3.78h.92v3.68c0,.72.23,1,.81,1a1.59,1.59,0,0,0,1.31-.91v-3.76h.92Z"/><path class="cls-1" d="M166,270.42a5.13,5.13,0,0,1-1.54.16,1.39,1.39,0,0,1,.93,1.33,1.79,1.79,0,0,1-2,1.79,2.13,2.13,0,0,1-.67-.1.63.63,0,0,0-.25.49c0,.24.14.43.68.43H164c1.08,0,1.8.62,1.8,1.46,0,1-.84,1.6-2.47,1.6s-2.25-.53-2.25-1.6h.82c0,.6.28.88,1.43.88s1.54-.29,1.54-.82-.4-.75-1.06-.75H163c-.93,0-1.35-.47-1.35-1a1.13,1.13,0,0,1,.57-.93,1.52,1.52,0,0,1-.89-1.46,1.88,1.88,0,0,1,2-1.84,4.53,4.53,0,0,0,2.41-.47Zm-3.76,1.48a1.06,1.06,0,0,0,1.1,1.19,1,1,0,0,0,1.11-1.2,1,1,0,0,0-1.13-1.17A1,1,0,0,0,162.27,271.9Z"/><polyline class="cls-12" points="215.67 274.5 220.31 288.13 232.21 288.13"/><polygon class="cls-1" points="214.63 276.05 215.83 274.97 217.44 275.09 214.9 272.24 214.63 276.05"/><polyline class="cls-12" points="224.75 274.51 226.5 279.85 232.15 279.85"/><polygon class="cls-1" points="223.69 276.04 224.91 274.98 226.51 275.12 224.01 272.24 223.69 276.04"/><polyline class="cls-12" points="205.12 274.52 212.18 296.38 232.15 296.38"/><polygon class="cls-1" points="204.06 276.04 205.27 274.99 206.88 275.13 204.39 272.24 204.06 276.04"/><polyline class="cls-12" points="191.96 274.51 202.08 305.39 231.9 305.39"/><polygon class="cls-1" points="190.9 276.04 192.11 274.98 193.71 275.12 191.21 272.24 190.9 276.04"/><path class="cls-1" d="M235.44,279.68c0-1.66,1-2.51,2.11-2.51a1.9,1.9,0,0,1,1.44.56l-.46.47a1.31,1.31,0,0,0-1-.39c-.68,0-1.28.49-1.28,1.87s.39,1.88,1.16,1.88a1.6,1.6,0,0,0,.79-.2V280h-.82l-.08-.63H239v2.35a3.09,3.09,0,0,1-1.62.44C236.18,282.19,235.44,281.34,235.44,279.68Z"/><path class="cls-1" d="M240.49,278c0,.29.11,1.13.11,1.92v2.19h-.72v-4.83h1.06l1.54,4.11a18.3,18.3,0,0,1-.11-1.91v-2.2h.72v4.83H242Z"/><path class="cls-1" d="M245.26,282.1h-1.18v-4.83h1.11c1.17,0,2.32.38,2.32,2.39S246.34,282.1,245.26,282.1Zm.08-4.21h-.45v3.59h.46c.67,0,1.31-.35,1.31-1.82S246,277.89,245.34,277.89Z"/><path class="cls-1" d="M238.74,286.28h-1.05v3.6h1.05v.62h-2.91v-.62h1v-3.6h-1v-.61h2.91Z"/><path class="cls-1" d="M241.48,290.59c-1.21,0-1.83-1-1.83-2.5s.62-2.52,1.83-2.52,1.84,1,1.84,2.51S242.7,290.59,241.48,290.59Zm0-4.38c-.71,0-1,.63-1,1.88s.31,1.87,1,1.87,1-.63,1-1.88S242.2,286.21,241.48,286.21Z"/><path class="cls-1" d="M251.22,286.93c0,.85-.53,1.54-2.08,2.94h2.19l-.08.63h-3v-.6c1.73-1.66,2.18-2.21,2.18-2.92a.73.73,0,0,0-.79-.78,1.14,1.14,0,0,0-1,.5l-.5-.39a1.8,1.8,0,0,1,1.54-.74A1.37,1.37,0,0,1,251.22,286.93Z"/><path class="cls-1" d="M238.74,294.68h-1.05v3.6h1.05v.62h-2.91v-.62h1v-3.6h-1v-.61h2.91Z"/><path class="cls-1" d="M241.48,299c-1.21,0-1.83-1-1.83-2.5s.62-2.52,1.83-2.52,1.84,1,1.84,2.51S242.7,299,241.48,299Zm0-4.38c-.71,0-1,.63-1,1.88s.31,1.87,1,1.87,1-.63,1-1.88S242.2,294.61,241.48,294.61Z"/><path class="cls-1" d="M251.49,298.28v.62h-2.92v-.62h1.18v-3.41l-1.06.65-.34-.54,1.48-.91h.7v4.21Z"/><path class="cls-1" d="M238.57,303.06h-1.86v1.34a1.67,1.67,0,0,1,.79-.19,1.36,1.36,0,0,1,1.34,1.54,1.6,1.6,0,0,1-1.74,1.64,2,2,0,0,1-1.48-.63l.47-.44a1.26,1.26,0,0,0,1,.45.9.9,0,0,0,1-1c0-.71-.34-1-.79-1a1.61,1.61,0,0,0-.69.16H236v-2.48h2.71Z"/><path class="cls-1" d="M242.65,302.47h.83L242,307.3H241l-1.53-4.83h.87l1.14,4.06Z"/><line class="cls-13" x1="258.81" y1="269.95" x2="228.95" y2="269.95"/><polyline class="cls-13" points="258.81 252.63 228.94 252.63 228.94 269.95"/><line x1="200.71" y1="256.5" x2="199.47" y2="256.5"/><polyline class="cls-9" points="200.71 256.5 200.71 266.08 199.47 266.08"/><polyline class="cls-9" points="200.71 256.5 199.47 256.5 199.47 266.08"/><line x1="200.71" y1="266.08" x2="199.47" y2="266.08"/><line x1="210.74" y1="256.5" x2="209.51" y2="256.5"/><polyline class="cls-9" points="210.74 256.5 210.74 266.08 209.51 266.08"/><polyline class="cls-9" points="210.74 256.5 209.51 256.5 209.51 266.08"/><line x1="210.74" y1="266.08" x2="209.51" y2="266.08"/><polyline class="cls-13" points="218.94 266.08 191.77 266.08 189.72 264.44 181.28 264.94 179.23 262.52"/><polyline class="cls-13" points="218.94 256.5 191.77 256.5 189.72 258.14 181.28 257.64 179.23 260.06"/><polyline class="cls-13" points="179.23 262.52 178.91 261.93 178.77 261.29 178.91 260.61 179.23 260.06"/><line class="cls-13" x1="218.95" y1="266.08" x2="218.95" y2="256.5"/><line class="cls-13" x1="200.71" y1="266.08" x2="200.71" y2="256.5"/><line class="cls-13" x1="199.47" y1="266.08" x2="199.47" y2="256.5"/><line class="cls-13" x1="210.74" y1="266.08" x2="210.74" y2="256.5"/><line class="cls-13" x1="209.51" y1="266.08" x2="209.51" y2="256.5"/><line class="cls-13" x1="258.81" y1="252.63" x2="258.81" y2="269.95"/><line class="cls-13" x1="191.77" y1="256.5" x2="191.77" y2="266.08"/><line class="cls-13" x1="189.72" y1="258.14" x2="189.72" y2="264.44"/><line class="cls-13" x1="181.28" y1="257.64" x2="181.28" y2="264.94"/><rect x="218.95" y="256.5" width="1.49" height="9.58"/><rect class="cls-5" x="219.3" y="256.5" width="9.42" height="9.58"/></g></svg>